<?xml version="1.0" encoding="iso-8859-1"?>
<!DOCTYPE svg PUBLIC "-//W3C//DTD SVG 20000303 Stylable//EN"
"http://www.w3.org/TR/2000/03/WD-SVG-20000303/DTD/svg-20000303-stylable.dtd">

<svg width="1.1122in" height="1.1122in" viewBox="0 0 640 640">

<path style="fill:#8fb735" d="M0,141 l318,179 0,320 -258,0 -6,0 -6,-1 -6,-2 -5,-2 -5,-2 -5,-3 -5,-4 -4,-3 -4,-5 -4,-4 -3,-5 -2,-6 -2,-5 -2,-6 -1,-6 0,-6 0,-439z" />
<path style="fill:#bb3a84" d="M318,640 l0,-320 322,-215 0,475 0,6 -1,6 -2,6 -2,5 -2,6 -3,5 -4,4 -3,5 -5,3 -4,4 -5,3 -6,2 -5,2 -6,2 -6,1 -6,0 -262,0z" />
<path style="fill:#d18c3b" d="M640,105 l-322,215 -318,-179 0,-81 0,-6 1,-6 2,-6 2,-5 2,-5 3,-5 4,-5 4,-4 4,-4 5,-4 5,-3 5,-2 5,-2 6,-2 6,-1 6,0 520,0 6,0 6,1 6,2 5,2 6,2 5,3 4,4 5,4 3,4 4,5 3,5 2,5 2,5 2,6 1,6 0,6 0,45z" />

</svg>
