<?xml version="1.0" encoding="iso-8859-1"?>
<!DOCTYPE svg PUBLIC "-//W3C//DTD SVG 20000303 Stylable//EN"
"http://www.w3.org/TR/2000/03/WD-SVG-20000303/DTD/svg-20000303-stylable.dtd">

<svg width="0.4449in" height="0.4449in" viewBox="0 0 256 256">

<path style="fill:#a02c35" d="M256,232 l0,5 -2,4 -1,3 -1,2 -1,1 -2,2 -3,3 -5,2 -4,2 -5,0 -208,0 -5,0 -4,-2 -2,-1 -2,-1 -2,-1 -2,-2 -3,-3 -2,-5 -1,-4 -1,-5 0,-208 1,-5 1,-4 1,-2 1,-2 2,-2 1,-2 4,-3 4,-2 4,-1 5,-1 208,0 5,1 4,1 3,1 2,1 1,2 2,1 3,4 2,4 2,4 0,5 0,208z" />
<path style="fill:#fff" d="M72,108 l-1,-1 -2,-2 -2,-2 -3,-6 -1,-2 -1,-3 -1,-5 1,-5 1,-5 1,-3 1,-2 3,-4 4,-3 5,-2 2,-1 3,-1 5,0 6,1 5,3 5,3 5,4 77,76 4,5 3,5 2,5 1,6 0,5 -1,5 -1,3 -1,2 -4,4 -4,4 -5,2 -2,0 -3,1 -5,0 -6,-1 -5,-2 -5,-3 -5,-4 -76,-77z" />
<path style="fill:#fff" d="M148,72 l1,-1 2,-2 3,-2 5,-3 2,-1 3,-1 5,-1 6,1 5,1 2,1 2,1 4,3 4,4 2,5 0,2 1,3 0,5 -1,6 -2,5 -3,5 -4,5 -77,77 -5,4 -5,3 -5,2 -6,1 -5,0 -5,-1 -3,-1 -2,-1 -4,-4 -3,-4 -2,-5 -1,-2 -1,-3 0,-5 1,-6 3,-5 3,-5 4,-5 76,-76z" />

</svg>
