<?xml version="1.0" encoding="iso-8859-1"?>
<!DOCTYPE svg PUBLIC "-//W3C//DTD SVG 20000303 Stylable//EN"
"http://www.w3.org/TR/2000/03/WD-SVG-20000303/DTD/svg-20000303-stylable.dtd">

<svg width="1.1122in" height="1.1122in" viewBox="0 0 640 640">

<path style="fill:#d18c3b" d="M640,580 l0,6 -1,6 -2,6 -2,5 -2,6 -3,5 -4,4 -3,5 -5,3 -4,4 -5,3 -6,2 -5,2 -6,2 -6,1 -6,0 -520,0 -6,0 -6,-1 -6,-2 -5,-2 -5,-2 -5,-3 -5,-4 -4,-3 -4,-5 -4,-4 -3,-5 -2,-6 -2,-5 -2,-6 -1,-6 0,-6 0,-520 0,-6 1,-6 2,-6 2,-5 2,-5 3,-5 4,-5 4,-4 4,-4 5,-4 5,-3 5,-2 5,-2 6,-2 6,-1 6,0 520,0 6,0 6,1 6,2 5,2 6,2 5,3 4,4 5,4 3,4 4,5 3,5 2,5 2,5 2,6 1,6 0,6 0,520z" />
<path style="fill:#fff" d="M145,359 l80,68 -80,62 -83,-63 83,-67z" />
<path style="fill:#fff" d="M324,627 l-76,-59 75,-59 73,62 -72,56z" />
<path style="fill:#fff" d="M229,430 l90,76 -75,60 -96,-74 18,-13 63,-49z" />
<path style="fill:#fff" d="M400,568 l-74,-62 89,-70 75,63 -90,69z" />
<path style="fill:#fff" d="M237,285 l2,2 10,8 69,59 -89,70 -81,-68 89,-71z" />
<path style="fill:#fff" d="M494,496 l-75,-63 85,-68 76,65 -82,63 -4,3z" />
<path style="fill:#fff" d="M412,287 l89,75 -85,68 -90,-76 86,-67z" />
<path style="fill:#d18c3b" d="M325,213 l83,71 -86,67 -82,-69 85,-69z" />
<path style="fill:#fff" d="M152,163 l-2,55 -73,62 8,-58 67,-59z" />
<path style="fill:#fff" d="M60,421 l9,-68 79,-68 -3,68 -85,68z" />
<path style="fill:#fff" d="M150,221 l-2,61 -79,68 8,-67 73,-62z" />
<path style="fill:#fff" d="M151,281 l89,-77 -3,74 -89,72 3,-69z" />
<path style="fill:#fff" d="M322,210 l-81,65 3,-74 78,-67 0,76z" />
<path style="fill:#d18c3b" d="M322,131 l-78,67 2,-60 76,-65 0,58z" />
<path style="fill:#d18c3b" d="M154,218 l88,-77 -2,60 -89,78 3,-61z" />
<path style="fill:#fff" d="M322,70 l-76,65 2,-57 74,-65 0,57z" />
<path style="fill:#fff" d="M156,160 l88,-79 -2,57 -88,77 2,-55z" />
<path style="fill:#fff" d="M328,210 l0,-197 233,210 19,198 -252,-211z" />
<path style="fill:#d18c3b" d="M322,357 l90,76 -89,70 -91,-76 90,-70z" />
<ellipse style="fill:#fff" cx="322" cy="438" rx="27" ry="27" />
<path style="fill:#d18c3b;fill-rule:evenodd" d="M477,226 l-5,28 -5,-3 -10,-8 -5,-4 -3,-4 -7,-7 -5,-8 -7,-11 -11,-19 -7,-10 -3,-4 -3,-2 -3,-3 -3,-1 -3,-1 -2,-1 -2,0 -1,1 -1,2 -1,2 0,3 0,3 2,3 2,4 3,4 4,4 5,5 6,6 -11,24 -12,-11 -10,-10 -5,-5 -4,-6 -8,-10 -1,-3 -2,-3 -2,-5 -2,-5 -2,-6 0,-5 -1,-5 0,-5 1,-6 1,-3 2,-4 1,-3 2,-2 2,-2 3,-2 2,-1 3,0 5,-1 5,1 4,1 6,2 5,2 5,3 6,3 6,5 10,8 9,10 9,13 11,18 7,13 6,8 6,7 8,6z M483,264 l6,-30 43,32 -7,30 -42,-32z " />
<ellipse style="fill:#fff" cx="324" cy="288" rx="27" ry="27" />
<path style="fill:#fff" d="M171,232 l0,-1 0,-2 0,-1 0,-2 1,-4 3,-4 3,-4 4,-5 4,-5 5,-4 5,-4 5,-4 5,-2 4,-2 4,-1 4,-1 2,1 2,2 0,1 0,1 0,2 0,2 -2,3 -2,5 -3,4 -4,5 -4,4 -5,5 -5,4 -5,3 -5,3 -4,2 -4,1 -4,0 -2,-1 -2,-1z" />
<path style="fill:#fff" d="M257,158 l0,-2 0,-1 0,-2 0,-1 2,-4 2,-4 3,-5 4,-4 4,-5 5,-4 5,-4 5,-4 5,-3 5,-1 4,-1 3,-1 2,1 2,2 0,1 1,1 -1,2 0,2 -1,3 -3,4 -3,5 -3,4 -5,5 -5,5 -5,4 -5,3 -5,3 -4,2 -4,1 -3,0 -3,-1 -2,-1z" />
<path style="fill:#fff" d="M242,138 l-2,66 4,-3 2,-66 -4,3z" />

</svg>
