<?xml version="1.0" encoding="iso-8859-1"?>
<!DOCTYPE svg PUBLIC "-//W3C//DTD SVG 20000303 Stylable//EN"
"http://www.w3.org/TR/2000/03/WD-SVG-20000303/DTD/svg-20000303-stylable.dtd">

<svg width="1.1122in" height="1.1122in" viewBox="0 0 640 640">

<path style="fill:#bb3a84" d="M640,580 l0,6 -1,6 -2,6 -2,5 -2,6 -3,5 -4,4 -3,5 -5,3 -4,4 -5,3 -6,2 -5,2 -6,2 -6,1 -6,0 -520,0 -6,0 -6,-1 -6,-2 -5,-2 -5,-2 -5,-3 -5,-4 -4,-3 -4,-5 -4,-4 -3,-5 -2,-6 -2,-5 -2,-6 -1,-6 0,-6 0,-520 0,-6 1,-6 2,-6 2,-5 2,-5 3,-5 4,-5 4,-4 4,-4 5,-4 5,-3 5,-2 5,-2 6,-2 6,-1 6,0 520,0 6,0 6,1 6,2 5,2 6,2 5,3 4,4 5,4 3,4 4,5 3,5 2,5 2,5 2,6 1,6 0,6 0,520z" />
<path style="fill:#fff" d="M197,323 l-1,-3 -1,-3 0,-4 -1,-6 1,-13 1,-17 1,-19 2,-21 6,-44 6,-44 6,-39 5,-28 4,-13 2,-5 2,-4 3,-3 2,-3 4,-2 1,-1 2,-1 4,-1 5,0 5,0 5,1 4,2 3,2 4,3 3,4 3,4 2,4 2,22 2,22 2,26 2,28 1,26 0,21 0,15 -92,94z" />
<path style="fill:#fff" d="M238,591 l0,-24 0,-25 0,-26 -1,-5 -1,-4 -1,-4 -2,-4 -4,-7 -4,-6 -5,-7 -5,-6 -10,-11 -10,-11 -5,-6 -4,-7 -4,-6 -2,-4 -1,-4 -2,-4 -1,-4 -1,-4 0,-4 -1,-12 0,-10 1,-10 1,-6 1,-6 4,-13 5,-11 2,-5 4,-5 7,-10 15,-18 7,-11 7,-12 3,-5 2,-6 3,-11 2,-11 2,-10 2,-5 1,-4 2,-3 3,-3 3,-3 3,-2 5,-1 5,0 4,0 3,0 5,2 4,2 1,2 2,1 2,3 1,2 2,2 1,-1 2,-4 3,-5 2,-2 2,-2 2,-1 3,-1 4,0 4,-1 4,1 4,1 9,3 5,2 4,2 4,3 4,3 3,4 3,4 2,4 1,5 1,4 0,1 2,-1 3,-1 4,-1 5,-1 5,1 3,0 4,1 7,2 3,2 3,2 5,5 4,5 4,6 3,6 2,4 2,6 1,0 3,1 9,0 6,1 7,1 7,2 7,4 2,1 2,1 3,4 1,5 0,4 0,9 1,3 1,3 1,20 1,43 0,23 0,22 -1,16 0,6 -1,4 -8,18 -4,8 -7,8 -2,2 -3,2 -6,3 -3,1 -2,2 -1,2 -1,3 1,43 0,28 -1,10 0,3 -94,0 -95,0z" />
<path style="fill:#bb3a84" d="M234,591 l0,-24 0,-25 0,-26 8,0 1,26 0,25 -1,24z" />
<path style="fill:#bb3a84" d="M234,517 l-1,-4 -1,-4 -1,-4 -2,-4 -3,-7 -4,-6 -5,-6 -5,-6 -10,-11 -11,-11 -5,-7 -4,-6 -4,-7 -2,-4 -1,-4 -2,-4 -1,-5 -1,-4 0,-5 8,-1 0,4 1,4 1,4 2,4 1,3 1,4 4,6 4,6 5,6 10,11 10,12 6,6 4,6 5,7 4,7 1,5 2,4 1,4 1,5z" />
<path style="fill:#bb3a84" d="M242,516 l0,-1 -8,2 0,-1 8,0z" />
<path style="fill:#bb3a84" d="M171,408 l-1,-12 0,-10 1,-11 1,-5 1,-6 8,1 -1,6 -1,5 -1,10 0,10 1,11z" />
<path style="fill:#bb3a84" d="M171,408 l8,-1 -8,1z" />
<path style="fill:#bb3a84" d="M173,363 l4,-13 5,-12 3,-6 3,-5 7,-9 15,-19 7,-10 7,-12 7,5 -7,12 -7,10 -15,19 -7,10 -3,4 -3,5 -4,11 -4,13z" />
<path style="fill:#bb3a84" d="M173,364 l-1,1 1,-2 8,3 0,-1 -8,-1z" />
<path style="fill:#bb3a84" d="M224,278 l3,-6 2,-5 2,-11 3,-11 2,-10 2,-5 1,-4 3,-5 3,-3 3,-4 5,-2 6,-1 5,-1 1,9 -5,0 -4,1 -3,2 -2,2 -3,2 -1,3 -2,4 -1,4 -2,10 -2,11 -3,12 -3,6 -2,5z" />
<path style="fill:#bb3a84" d="M231,282 l1,-1 -8,-3 0,-1 7,5z" />
<path style="fill:#bb3a84" d="M265,210 l3,0 4,1 6,2 4,3 2,2 2,1 2,3 2,3 1,2 -7,5 -1,-3 -2,-2 -2,-2 -1,-1 -1,-1 -3,-2 -5,-2 -2,0 -3,0z" />
<path style="fill:#bb3a84" d="M264,210 l1,0 -1,9 1,0 -1,-9z" />
<path style="fill:#bb3a84" d="M286,226 l0,0 4,7 0,0z" />
<path style="fill:#bb3a84" d="M284,232 l2,3 4,-2 -4,-7 5,1 -7,5z" />
<path style="fill:#bb3a84" d="M285,226 l0,0 1,-1 2,-3 3,-5 2,-3 2,-2 6,6 -2,2 -1,2 -3,4 -2,4 -2,2 -1,1z" />
<path style="fill:#bb3a84" d="M290,233 l-5,-7 1,0 4,7z" />
<path style="fill:#bb3a84" d="M296,212 l2,-2 4,-1 4,-1 5,0 4,1 5,1 10,3 5,2 4,3 4,3 5,3 3,4 3,5 3,5 1,4 -8,3 -1,-4 -2,-4 -3,-3 -2,-4 -4,-2 -3,-3 -4,-2 -4,-2 -9,-3 -4,-1 -4,0 -3,0 -3,0 -2,1 -2,1z" />
<path style="fill:#bb3a84" d="M295,212 l1,0 4,7 1,-1 -6,-6z" />
<path style="fill:#bb3a84" d="M358,243 l1,4 0,1 -8,1 0,-1 -1,-4z" />
<path style="fill:#bb3a84" d="M358,242 l0,1 -8,1 0,1 8,-3z" />
<path style="fill:#bb3a84" d="M354,245 l2,-1 3,-1 4,-1 6,-1 5,0 4,1 4,1 8,2 -3,8 -8,-2 -3,-1 -2,0 -5,0 -4,0 -4,1 -2,1 -3,1z" />
<path style="fill:#bb3a84" d="M351,249 l1,5 4,-1 -2,-8 5,3 -8,1z" />
<path style="fill:#bb3a84" d="M390,246 l3,2 4,2 5,5 5,6 3,6 4,6 2,5 2,5 -8,3 -2,-5 -2,-5 -3,-5 -3,-5 -4,-5 -5,-5 -2,-1 -3,-2z" />
<path style="fill:#bb3a84" d="M390,245 l0,1 -4,7 1,0 3,-8z" />
<path style="fill:#bb3a84" d="M416,281 l0,0 2,0 9,1 7,1 7,1 7,2 8,4 -4,8 -7,-4 -6,-2 -7,-1 -5,-1 -9,0 -4,0 -2,-1z" />
<path style="fill:#bb3a84" d="M410,286 l1,2 1,1 4,-8 2,2 -8,3z" />
<path style="fill:#bb3a84" d="M456,290 l3,2 2,2 3,4 2,6 1,5 0,9 0,2 1,3 -9,3 -1,-4 0,-4 0,-9 0,-3 -1,-4 -2,-3 -1,-1 -2,-1z" />
<path style="fill:#bb3a84" d="M456,290 l-4,7 0,1 4,-8z" />
<path style="fill:#bb3a84" d="M468,324 l1,20 1,43 1,23 -1,22 0,17 -1,6 -1,4 -9,-2 1,-4 1,-5 1,-16 0,-22 0,-23 -2,-43 -1,-19z" />
<path style="fill:#bb3a84" d="M468,323 l0,1 -9,1 0,1 9,-3z" />
<path style="fill:#bb3a84" d="M467,459 l-7,18 -5,9 -6,8 -7,-5 6,-8 4,-7 8,-18z" />
<path style="fill:#bb3a84" d="M468,459 l-1,0 -7,-3 -1,1 9,2z" />
<path style="fill:#bb3a84" d="M448,495 l-3,3 -3,2 -6,3 -2,1 -2,1 0,1 -1,2 -8,-1 1,-4 2,-4 3,-2 3,-2 6,-3 2,-1 2,-2z" />
<path style="fill:#bb3a84" d="M449,494 l0,1 -1,0 -6,-6 7,5z" />
<path style="fill:#bb3a84" d="M431,507 l1,43 0,28 0,10 -1,4 -8,-1 0,-3 0,-10 0,-28 0,-43z" />
<path style="fill:#bb3a84" d="M423,507 l8,0 0,1 -8,-1z" />
<path style="fill:#bb3a84" d="M427,596 l-94,-1 -95,1 0,-9 95,0 94,0z" />
<path style="fill:#bb3a84" d="M431,592 l0,4 -4,0 0,-9 -4,4 8,1z" />
<path style="fill:#bb3a84" d="M238,596 l-4,0 0,-5 8,0 -4,-4 0,9z" />
<path style="fill:#bb3a84" d="M245,362 l8,-6 7,-5 3,-3 3,-3 5,-8 7,5 -5,8 -4,4 -3,3 -7,6 -9,6z" />
<path style="fill:#bb3a84" d="M271,337 l2,-5 2,-5 1,-5 1,-6 2,-13 1,-13 1,-31 1,-16 2,-16 8,1 -2,16 -1,16 -1,30 -1,14 -1,14 -2,6 -1,6 -2,6 -3,5z" />
<path style="fill:#bb3a84" d="M278,342 l0,-1 -7,-4 7,5z" />
<path style="fill:#bb3a84" d="M271,350 l3,3 2,4 4,6 2,2 2,3 2,2 4,1 -4,8 -4,-2 -4,-3 -2,-3 -3,-3 -4,-7 -2,-3 -3,-3z" />
<path style="fill:#bb3a84" d="M289,371 l8,2 2,0 3,0 7,-1 7,-3 3,8 -8,3 -8,2 -4,0 -4,0 -8,-3z" />
<path style="fill:#bb3a84" d="M286,379 l1,1 0,-1 2,-8 1,0 -4,8z" />
<path style="fill:#bb3a84" d="M315,370 l2,-1 1,-1 4,-4 3,-5 3,-5 3,-7 3,-7 6,-15 8,3 -6,15 -3,7 -3,8 -4,6 -4,6 -4,4 -2,2 -3,1z" />
<path style="fill:#bb3a84" d="M319,377 l1,0 -1,0 -4,-7 1,-1 3,8z" />
<path style="fill:#bb3a84" d="M340,325 l2,-8 1,-8 3,-19 3,-20 3,-23 8,2 -3,22 -2,20 -3,19 -2,9 -2,8z" />
<path style="fill:#bb3a84" d="M348,328 l0,-1 -8,-2 8,3z" />
<path style="fill:#bb3a84" d="M321,373 l4,5 3,5 3,4 1,1 3,2 -6,7 -2,-2 -3,-3 -3,-5 -3,-4 -4,-5z" />
<path style="fill:#bb3a84" d="M334,390 l5,2 4,2 4,1 5,0 4,0 4,-1 11,-4 2,8 -10,4 -6,1 -5,0 -6,0 -5,-1 -6,-2 -5,-3z" />
<path style="fill:#bb3a84" d="M329,397 l-1,-1 2,1 4,-7 1,0 -6,7z" />
<path style="fill:#bb3a84" d="M370,390 l4,-1 2,-2 3,-2 2,-3 2,-2 1,-3 3,-6 4,-15 2,-7 3,-8 8,2 -3,8 -2,8 -4,15 -3,7 -2,4 -3,3 -2,3 -3,3 -4,2 -4,2z" />
<path style="fill:#bb3a84" d="M373,398 l1,0 -4,-8 1,0 2,8z" />
<path style="fill:#bb3a84" d="M396,341 l5,-15 3,-12 3,-14 3,-14 8,2 -3,14 -3,14 -3,13 -5,14z" />
<path style="fill:#bb3a84" d="M396,341 l8,2 -8,-2z" />
<path style="fill:#bb3a84" d="M382,392 l1,4 1,3 1,2 1,0 1,1 -3,7 -2,-1 -3,-2 -3,-4 -1,-3 -1,-4z" />
<path style="fill:#bb3a84" d="M386,401 l6,1 3,1 2,-1 2,0 3,-1 4,-2 4,-4 4,-4 5,-6 4,-6 3,-7 5,-7 8,-15 9,-14 5,-7 6,-6 6,5 -5,6 -5,7 -9,14 -8,15 -4,7 -4,7 -5,7 -4,5 -5,6 -5,4 -6,3 -3,1 -4,1 -3,0 -4,0 -7,-1z" />
<path style="fill:#bb3a84" d="M384,409 l0,1 2,-9 1,1 -3,7z" />
<path style="fill:#bb3a84" d="M182,112 l-9,16 9,24 28,12 20,-16 11,-24 -16,-14 -33,-4 -10,6z" />
<path style="fill:#bb3a84" d="M263,111 l-7,6 -5,4 -2,2 4,2 7,4 10,6 31,20 15,8 15,-23 -2,-26 -6,-5 -4,-4 -2,-1 -36,-2 -18,9z" />
<path style="fill:#fff" d="M222,205 l0,-8 1,-10 2,-12 3,-12 3,-12 3,-11 4,-9 4,-7 13,8 -4,6 -3,7 -3,10 -3,12 -2,11 -2,11 -1,10 0,7z" />
<path style="fill:#fff" d="M243,123 l4,-4 4,-3 4,-4 5,-3 10,-5 6,-2 5,-2 4,14 -5,2 -4,1 -8,5 -4,2 -4,3 -3,3 -3,3z" />
<path style="fill:#fff" d="M242,124 l1,-1 11,10 1,-1 -13,-8z" />
<path style="fill:#fff" d="M282,100 l11,-2 12,-1 6,1 5,1 4,2 3,2 5,3 -10,12 -4,-3 -1,-1 -1,-1 -4,-1 -3,0 -10,0 -11,3z" />
<path style="fill:#fff" d="M281,100 l-1,0 2,0 2,15 1,-1 -4,-14z" />
<path style="fill:#fff" d="M329,107 l4,6 4,6 2,7 1,7 -1,7 -1,6 -2,7 -3,6 -14,-6 3,-5 1,-5 1,-5 1,-5 -1,-4 -1,-4 -2,-4 -4,-4z" />
<path style="fill:#fff" d="M328,106 l0,1 1,0 -12,10 1,1 10,-12z" />
<path style="fill:#fff" d="M332,160 l-3,5 -2,2 -1,1 -3,2 -6,2 -6,0 -6,-1 -5,-2 -6,-3 -5,-4 -22,-16 -11,-7 -5,-2 -5,-3 6,-13 6,2 6,4 12,7 22,16 4,3 4,2 4,2 2,1 2,-1 2,0 0,-1 1,0 0,0 3,-4z" />
<path style="fill:#fff" d="M333,159 l-1,1 -12,-8 -1,1 14,6z" />
<path style="fill:#fff" d="M246,134 l-8,-3 -7,-3 -12,-7 -5,-2 -6,-2 -6,-1 -2,0 -4,1 -2,-15 5,0 5,0 7,1 8,2 7,3 12,7 7,3 7,3z" />
<path style="fill:#fff" d="M252,121 l-6,13 6,-13z" />
<path style="fill:#fff" d="M196,117 l-4,1 -4,1 -2,2 -1,0 -1,1 -2,2 -1,2 -1,3 0,2 0,7 0,2 1,3 1,3 1,2 1,1 1,1 -11,11 -2,-3 -2,-3 -2,-3 -1,-4 -1,-4 -1,-5 0,-8 1,-6 1,-5 2,-4 3,-4 2,-2 3,-2 5,-3 5,-2 6,-1z" />
<path style="fill:#fff" d="M194,102 l-2,0 1,0 3,15 -2,-15z" />
<path style="fill:#fff" d="M184,150 l3,2 3,2 3,1 3,1 3,1 3,0 4,0 4,0 1,15 -5,0 -5,0 -5,0 -4,-1 -5,-2 -4,-2 -4,-3 -4,-3z" />
<path style="fill:#fff" d="M174,161 l1,0 9,-11 1,0 -11,11z" />
<path style="fill:#fff" d="M209,157 l3,0 2,-1 2,-1 2,-2 1,-2 2,-2 4,-5 8,-13 3,-3 3,-3 3,-2 4,-2 6,14 -2,1 -2,1 -2,2 -1,1 -7,12 -5,6 -2,3 -3,3 -4,3 -3,2 -5,2 -4,1z" />
<path style="fill:#fff" d="M211,172 l1,0 -3,-15 1,0 1,15z" />
<path style="fill:#fff" d="M251,121 l3,1 3,3 3,5 3,8 2,9 7,20 3,10 3,10 -14,4 -4,-9 -3,-11 -6,-20 -3,-8 -2,-7 -2,-3 2,1 2,1z" />
<path style="fill:#fff" d="M246,121 l2,-1 3,1 -3,14 4,0 -6,-14z" />
<path style="fill:#bb3a84" d="M249,127 l3,1 3,3 4,5 8,16 10,20 5,10 4,9 -13,7 -5,-10 -5,-10 -9,-20 -8,-14 -2,-4 1,1 1,1z" />
<path style="fill:#bb3a84" d="M226,210 l0,-8 1,-11 2,-12 3,-12 1,-6 2,-6 3,-11 4,-10 4,-7 13,9 -4,5 -3,8 -3,10 -1,6 -2,5 -2,12 -2,11 -1,10 0,7z" />

</svg>
