<?xml version="1.0" encoding="iso-8859-1"?>
<!DOCTYPE svg PUBLIC "-//W3C//DTD SVG 20000303 Stylable//EN"
"http://www.w3.org/TR/2000/03/WD-SVG-20000303/DTD/svg-20000303-stylable.dtd">

<svg width="1.1122in" height="1.1122in" viewBox="0 0 640 640">

<path style="fill:#7715d6" d="M640,580 l0,6 -1,6 -2,6 -2,5 -2,6 -3,5 -4,4 -3,5 -5,3 -4,4 -5,3 -6,2 -5,2 -6,2 -6,1 -6,0 -520,0 -6,0 -6,-1 -6,-2 -5,-2 -5,-2 -5,-3 -5,-4 -4,-3 -4,-5 -4,-4 -3,-5 -2,-6 -2,-5 -2,-6 -1,-6 0,-6 0,-520 0,-6 1,-6 2,-6 2,-5 2,-5 3,-5 4,-5 4,-4 4,-4 5,-4 5,-3 5,-2 5,-2 6,-2 6,-1 6,0 520,0 6,0 6,1 6,2 5,2 6,2 5,3 4,4 5,4 3,4 4,5 3,5 2,5 2,5 2,6 1,6 0,6 0,520z" />
<path style="fill:#fff" d="M464,343 l-9,9 -38,38 -105,104 -2,2 -5,5 -5,4 -5,4 -6,3 -7,4 -8,3 -7,2 -7,1 -5,0 -5,0 -5,-1 -4,-1 -5,-1 -3,-2 -4,-2 -3,-3 -2,-3 -2,-2 -1,-3 -1,-3 -2,-7 -1,-8 0,-6 0,-6 0,-5 -1,-49 0,-100 0,-101 1,-33 0,-15 0,-5 0,-12 1,-7 2,-7 2,-7 2,-2 2,-2 3,-3 4,-3 3,-2 5,-1 9,-2 5,0 5,0 7,2 7,2 8,3 7,3 6,4 6,4 6,5 5,5 105,105 38,38 5,4 4,4 3,6 3,5 2,6 0,6 0,6 -2,6 -3,6 -3,5z" />

</svg>
