<?xml version="1.0" encoding="UTF-8" standalone="no"?>
<svg
   xmlns:dc="http://purl.org/dc/elements/1.1/"
   xmlns:cc="http://creativecommons.org/ns#"
   xmlns:rdf="http://www.w3.org/1999/02/22-rdf-syntax-ns#"
   xmlns:svg="http://www.w3.org/2000/svg"
   xmlns="http://www.w3.org/2000/svg"
   xmlns:sodipodi="http://sodipodi.sourceforge.net/DTD/sodipodi-0.dtd"
   xmlns:inkscape="http://www.inkscape.org/namespaces/inkscape"
   width="1.1122in"
   height="1.1122in"
   viewBox="0 0 640 640"
   id="svg3280"
   sodipodi:version="0.32"
   inkscape:version="0.46"
   sodipodi:docname="verbal-games.svg"
   inkscape:output_extension="org.inkscape.output.svg.inkscape">
  <metadata
     id="metadata3307">
    <rdf:RDF>
      <cc:Work
         rdf:about="">
        <dc:format>image/svg+xml</dc:format>
        <dc:type
           rdf:resource="http://purl.org/dc/dcmitype/StillImage" />
      </cc:Work>
    </rdf:RDF>
  </metadata>
  <defs
     id="defs3305">
    <inkscape:perspective
       sodipodi:type="inkscape:persp3d"
       inkscape:vp_x="0 : 50.049 : 1"
       inkscape:vp_y="0 : 1000 : 0"
       inkscape:vp_z="100.098 : 50.049 : 1"
       inkscape:persp3d-origin="50.049 : 33.366 : 1"
       id="perspective3309" />
    <inkscape:perspective
       id="perspective2565"
       inkscape:persp3d-origin="372.04724 : 350.78739 : 1"
       inkscape:vp_z="744.09448 : 526.18109 : 1"
       inkscape:vp_y="0 : 1000 : 0"
       inkscape:vp_x="0 : 526.18109 : 1"
       sodipodi:type="inkscape:persp3d" />
  </defs>
  <sodipodi:namedview
     inkscape:window-height="725"
     inkscape:window-width="1280"
     inkscape:pageshadow="2"
     inkscape:pageopacity="0.0"
     guidetolerance="10.0"
     gridtolerance="10.0"
     objecttolerance="10.0"
     borderopacity="1.0"
     bordercolor="#666666"
     pagecolor="#ffffff"
     id="base"
     showgrid="false"
     inkscape:zoom="4.6154769"
     inkscape:cx="53.455641"
     inkscape:cy="48.424032"
     inkscape:window-x="0"
     inkscape:window-y="52"
     inkscape:current-layer="svg3280" />
  <ellipse
     style="fill:#fff"
     cx="320"
     cy="275"
     rx="299"
     ry="185"
     id="ellipse3284"
     inkscape:export-filename="/home/jordi/dev/gbrainy/data/app-graphics/verbal-games-32.png"
     inkscape:export-xdpi="28.793007"
     inkscape:export-ydpi="28.793007" />
  <ellipse
     style="fill:#fff"
     cx="197"
     cy="432"
     rx="60"
     ry="59"
     id="ellipse3286"
     inkscape:export-filename="/home/jordi/dev/gbrainy/data/app-graphics/verbal-games-32.png"
     inkscape:export-xdpi="28.793007"
     inkscape:export-ydpi="28.793007" />
  <ellipse
     style="fill:#fff"
     cx="141"
     cy="522"
     rx="35"
     ry="35"
     id="ellipse3288"
     inkscape:export-filename="/home/jordi/dev/gbrainy/data/app-graphics/verbal-games-32.png"
     inkscape:export-xdpi="28.793007"
     inkscape:export-ydpi="28.793007" />
  <ellipse
     style="fill:#fff"
     cx="87"
     cy="573"
     rx="25"
     ry="24"
     id="ellipse3290"
     inkscape:export-filename="/home/jordi/dev/gbrainy/data/app-graphics/verbal-games-32.png"
     inkscape:export-xdpi="28.793007"
     inkscape:export-ydpi="28.793007" />
  <path
     style="opacity:1;fill:#785050;fill-opacity:1;fill-rule:nonzero;stroke:none;stroke-width:4.13209677000000040;stroke-linecap:butt;stroke-linejoin:miter;marker:none;marker-start:none;marker-mid:none;marker-end:none;stroke-miterlimit:4;stroke-dasharray:none;stroke-dashoffset:0;stroke-opacity:1;visibility:visible;display:inline;overflow:visible;enable-background:accumulate"
     d="M 44.051916,637.11774 C 23.688793,630.51518 10.600585,618.32484 3.7169159,599.54977 L 0.41560556,590.54542 L 0.051939796,323.28758 C -0.34162521,34.076597 -0.71029541,49.742016 6.8733088,33.416872 C 10.861437,24.831781 24.831718,10.861437 33.416871,6.8733106 C 49.742015,-0.71029358 34.076595,-0.34162441 323.28757,0.051879472 L 590.54543,0.41560739 L 599.54978,3.7169177 C 618.70297,10.739219 631.51972,24.854358 637.53668,45.552103 C 639.53703,52.433026 639.71587,79.220781 639.39047,323.24181 L 639.03027,593.316 L 634.4141,604.01542 C 628.13822,618.56153 618.56154,628.13817 604.01549,634.41403 L 593.316,639.03028 L 322.49349,639.30925 C 65.973802,639.57345 51.268621,639.45777 44.051916,637.1178 L 44.051916,637.11774 z M 99.756771,593.67723 C 107.96916,589.0616 112.42792,580.62856 111.64531,571.19178 C 110.52391,557.66858 100.98298,549.12895 86.995675,549.12895 C 82.49213,549.12895 77.564877,550.09065 74.946052,551.48076 C 63.320136,557.65204 58.654406,573.0255 64.987571,584.29384 C 71.66445,596.17372 87.642464,600.48578 99.756771,593.67723 L 99.756771,593.67723 z M 153.37255,554.90911 C 159.6544,552.9973 169.91083,543.41786 173.06179,536.51949 C 176.22501,529.59433 176.44919,515.48291 173.50813,508.42302 C 170.6777,501.62868 162.46165,493.1818 155.56712,489.97787 C 151.95754,488.30043 146.88721,487.40285 141.02162,487.40285 C 130.15251,487.40279 123.01574,490.37765 115.80788,497.91275 C 109.1371,504.88642 106.11257,512.39253 106.11257,521.97405 C 106.11257,531.57124 109.14784,539.08809 115.80788,545.98427 C 126.27068,556.81817 137.96823,559.5973 153.3726,554.90911 L 153.37255,554.90911 z M 207.57105,490.10198 C 217.13377,488.2884 228.69409,482.94221 236.00257,476.95342 C 240.46999,473.29272 247.88256,463.80706 252.44413,455.91361 C 252.52669,455.77084 260.99683,456.55229 271.2668,457.65012 C 293.55052,460.03226 342.42693,460.33094 364.30237,458.21856 C 496.23617,445.47852 600.06134,379.8543 616.7493,298.65582 C 632.38494,222.5773 570.82195,148.52505 461.64887,112.09037 C 351.01592,75.168463 216.52927,84.780179 121.88013,136.37346 C 71.533323,163.81759 35.480006,204.23795 24.445354,245.61038 C 20.444046,260.6126 20.149391,288.38573 23.843962,302.28993 C 35.898467,347.65537 71.744933,387.45732 126.25383,416.00001 L 136.83591,421.5411 L 136.85086,430.74582 C 136.89437,457.56708 155.11845,482.00479 179.86003,488.41935 C 193.04111,491.83672 197.11826,492.08427 207.57105,490.10198 L 207.57105,490.10198 z"
     id="path3832"
     inkscape:export-filename="/home/jordi/dev/gbrainy/data/app-graphics/verbal-games-32.png"
     inkscape:export-xdpi="28.793007"
     inkscape:export-ydpi="28.793007" />
  <path
     style="opacity:1;fill:#cc0000;fill-opacity:0;fill-rule:nonzero;stroke:none;stroke-width:4.13209677000000040;stroke-linecap:butt;stroke-linejoin:miter;marker:none;marker-start:none;marker-mid:none;marker-end:none;stroke-miterlimit:4;stroke-dasharray:none;stroke-dashoffset:0;stroke-opacity:1;visibility:visible;display:inline;overflow:visible;enable-background:accumulate"
     d="M 6.8048359,99.490675 C 4.2282528,98.798283 2.2352063,97.0765 0.98868721,94.466132 L 0.19138498,92.796478 L 0.1308062,52.605615 C 0.094157762,28.297548 0.15277576,11.271174 0.2791289,9.5209666 C 0.53024704,6.0425893 0.94155449,5.0185998 2.8690823,3.07305 C 4.5051256,1.4217147 5.8895979,0.67781325 7.9054069,0.36695047 C 9.0700298,0.18735256 20.869016,0.12974421 51.089007,0.15610551 L 92.670149,0.19237696 L 93.771466,0.65767232 C 95.421826,1.3549112 96.27944,1.9465337 97.433752,3.1841263 C 99.034237,4.90004 99.586899,6.3111314 99.77611,9.1648171 C 99.863035,10.475624 99.940947,29.807386 99.949267,52.124289 L 99.96439,92.700471 L 99.208715,94.292909 C 98.132077,96.561688 96.842871,97.905088 94.724888,98.965169 L 92.981016,99.838004 L 50.486123,99.823748 C 13.792428,99.811433 7.8292696,99.765964 6.8048381,99.490675 L 6.8048359,99.490675 z M 15.981948,92.614172 C 16.995486,91.84111 17.417954,90.99945 17.447348,89.694736 C 17.478498,88.312452 16.906932,87.154303 15.847663,86.453311 C 15.160529,85.998585 14.740113,85.890964 13.660734,85.893475 C 12.035585,85.897258 11.109126,86.335111 10.38816,87.440128 C 9.0488034,89.492937 9.6756812,91.815873 11.891151,93.009576 C 12.925471,93.566877 14.995181,93.366818 15.981955,92.61417 L 15.981948,92.614172 z M 23.092769,87.027051 C 25.250401,86.567486 26.977659,84.856443 27.369456,82.790498 C 27.815458,80.438743 26.974346,78.379272 25.010855,77.015439 C 24.081614,76.37 23.910841,76.330141 22.074281,76.330141 C 20.320165,76.330141 20.033571,76.389162 19.220773,76.917779 C 16.748255,78.525827 15.865744,81.481359 17.111584,83.981437 C 17.769358,85.301415 19.183945,86.543023 20.497295,86.953134 C 21.670567,87.319508 21.713876,87.320736 23.092763,87.027044 L 23.092769,87.027051 z M 32.774852,76.642015 C 35.162709,76.091526 37.557831,74.402251 38.80866,72.386381 L 39.407268,71.421649 L 40.707242,71.546564 C 41.422227,71.615259 44.932157,71.731689 48.507086,71.805291 C 55.64,71.952145 58.638693,71.733467 63.997164,70.675691 C 78.596587,67.793714 90.239349,60.576367 94.719883,51.630635 C 98.798508,43.487372 97.025799,34.942064 89.759832,27.720728 C 81.165899,19.179587 66.328538,14.059046 50.132053,14.044742 C 45.394449,14.040554 42.313457,14.288649 37.892791,15.030295 C 22.393539,17.630566 10.368184,24.803212 5.4083323,34.405979 C 3.7385504,37.638861 3.44132,38.9484 3.44132,43.072472 C 3.44132,46.894153 3.5939066,47.657548 5.000342,50.872316 C 7.2698951,56.059952 12.98288,61.595676 19.646157,65.063699 L 21.311294,65.930349 L 21.316836,67.01366 C 21.324464,68.506893 21.866385,70.672008 22.544224,71.917422 C 23.222572,73.163772 24.647945,74.69465 25.817441,75.432918 C 27.732381,76.641771 30.608112,77.14153 32.774848,76.642018 L 32.774852,76.642015 z"
     id="path4623"
     transform="scale(6.3937342,6.3937342)"
     inkscape:export-filename="/home/jordi/dev/gbrainy/data/app-graphics/verbal-games-32.png"
     inkscape:export-xdpi="28.793007"
     inkscape:export-ydpi="28.793007" />
  <path
     style="opacity:1;fill:#cccccc;fill-opacity:1;fill-rule:nonzero;stroke:none;stroke-width:4.13209677;stroke-linecap:butt;stroke-linejoin:miter;marker:none;marker-start:none;marker-mid:none;marker-end:none;stroke-miterlimit:4;stroke-dasharray:none;stroke-dashoffset:0;stroke-opacity:1;visibility:visible;display:inline;overflow:visible;enable-background:accumulate"
     d="M 30.199118,38.610972 C 29.782043,38.430599 29.123931,37.976548 28.736648,37.601972 L 28.032495,36.920924 L 28.032495,37.830074 L 28.032495,38.739226 L 25.865872,38.739226 L 23.699248,38.739226 L 23.699248,30.181063 L 23.699248,21.622901 L 25.974203,21.622901 L 28.249157,21.622901 L 28.249157,24.547843 C 28.249157,26.156561 28.299997,27.472784 28.362134,27.472784 C 28.424275,27.472784 28.860039,27.21805 29.330506,26.906711 C 30.631329,26.045861 32.589515,25.945917 34.150771,26.660684 C 36.220403,27.608194 37.132313,29.383625 37.132313,32.465573 C 37.132313,35.405891 35.977347,37.65037 34.002801,38.547235 C 32.940893,39.029573 31.233198,39.058187 30.199118,38.610975 L 30.199118,38.610972 z M 31.857092,34.960383 C 32.79721,33.89318 32.77376,31.111041 31.816578,30.153859 C 31.035496,29.37277 29.757125,29.438001 29.035356,30.295773 C 27.784976,31.781769 28.091639,34.561956 29.601429,35.427642 C 30.270116,35.811056 31.294687,35.598816 31.857092,34.960383 z"
     id="path5138"
     transform="scale(6.3937342,6.3937342)"
     inkscape:export-filename="/home/jordi/dev/gbrainy/data/app-graphics/verbal-games-32.png"
     inkscape:export-xdpi="28.793007"
     inkscape:export-ydpi="28.793007" />
  <path
     style="opacity:1;fill:#cccccc;fill-opacity:1;fill-rule:nonzero;stroke:none;stroke-width:4.13209677;stroke-linecap:butt;stroke-linejoin:miter;marker:none;marker-start:none;marker-mid:none;marker-end:none;stroke-miterlimit:4;stroke-dasharray:none;stroke-dashoffset:0;stroke-opacity:1;visibility:visible;display:inline;overflow:visible;enable-background:accumulate"
     d="M 39.732261,30.181063 L 39.732261,21.622901 L 42.115547,21.622901 L 44.498832,21.622901 L 44.498832,30.181063 L 44.498832,38.739226 L 42.115547,38.739226 L 39.732261,38.739226 L 39.732261,30.181063 z"
     id="path5140"
     transform="scale(6.3937342,6.3937342)"
     inkscape:export-filename="/home/jordi/dev/gbrainy/data/app-graphics/verbal-games-32.png"
     inkscape:export-xdpi="28.793007"
     inkscape:export-ydpi="28.793007" />
  <path
     style="opacity:1;fill:#cccccc;fill-opacity:1;fill-rule:nonzero;stroke:none;stroke-width:4.13209677;stroke-linecap:butt;stroke-linejoin:miter;marker:none;marker-start:none;marker-mid:none;marker-end:none;stroke-miterlimit:4;stroke-dasharray:none;stroke-dashoffset:0;stroke-opacity:1;visibility:visible;display:inline;overflow:visible;enable-background:accumulate"
     d="M 49.413553,38.641983 C 48.369462,38.269614 47.76919,37.737132 47.39387,36.850389 C 46.72746,35.275902 47.256339,33.53086 48.658329,32.678259 C 49.041602,32.445174 50.285593,32.048327 51.422754,31.796368 C 54.299198,31.15904 55.975269,30.692129 56.097694,30.494039 C 56.317672,30.138102 55.746002,29.188031 55.183059,28.974001 C 54.277285,28.629627 52.944296,28.94827 52.269707,29.670421 L 51.683826,30.297606 L 49.67318,30.069842 C 48.567335,29.944566 47.62348,29.803005 47.575732,29.755257 C 47.340173,29.519693 48.076948,28.069748 48.718394,27.506549 C 49.892661,26.475529 50.770852,26.281141 54.25442,26.281141 C 57.189348,26.281141 57.474547,26.318017 58.479336,26.827399 C 59.333494,27.260416 59.669078,27.597276 60.098172,28.452367 C 60.604137,29.460655 60.647138,29.806896 60.756773,33.755992 C 60.821284,36.079696 60.953745,38.151529 61.051131,38.360067 C 61.2135,38.707753 61.047595,38.739226 59.052414,38.739226 L 56.876635,38.739226 L 56.608701,37.998284 L 56.340783,37.257349 L 55.629476,37.79989 C 54.19952,38.890567 51.236197,39.29202 49.413557,38.641985 L 49.413553,38.641983 z M 54.898624,35.967287 C 55.196535,35.781878 55.557618,35.476609 55.701031,35.288908 C 55.989924,34.910807 56.317975,33.153162 56.133992,32.969178 C 55.940694,32.775874 52.375288,33.944274 52.082714,34.296805 C 51.738758,34.711245 51.732464,35.609766 52.070665,36.017273 C 52.568488,36.617113 53.892074,36.593718 54.898624,35.967285 L 54.898624,35.967287 z"
     id="path5142"
     transform="scale(6.3937342,6.3937342)"
     inkscape:export-filename="/home/jordi/dev/gbrainy/data/app-graphics/verbal-games-32.png"
     inkscape:export-xdpi="28.793007"
     inkscape:export-ydpi="28.793007" />
  <path
     style="opacity:1;fill:#cc0000;fill-opacity:0;fill-rule:nonzero;stroke:none;stroke-width:4.13209677000000040;stroke-linecap:butt;stroke-linejoin:miter;marker:none;marker-start:none;marker-mid:none;marker-end:none;stroke-miterlimit:4;stroke-dasharray:none;stroke-dashoffset:0;stroke-opacity:1;visibility:visible;display:inline;overflow:visible;enable-background:accumulate"
     d="M 63.78178,30.181063 L 63.78178,21.622901 L 66.056735,21.622901 L 68.331689,21.622901 L 68.331689,24.790219 L 68.331689,27.957538 L 69.090094,27.379078 C 70.207638,26.526683 71.209073,26.17281 72.503739,26.17281 C 74.225771,26.17281 75.449567,26.867152 76.131533,28.231102 C 76.650678,29.269407 76.676331,29.510199 76.748566,34.02682 L 76.823964,38.739226 L 74.419446,38.739226 L 72.014949,38.739226 L 72.014949,34.730973 C 72.014949,31.011602 71.983728,30.69149 71.581624,30.289395 C 70.881285,29.589047 69.774422,29.64415 68.981676,30.418831 C 68.449358,30.939007 68.43885,31.015363 68.372183,34.843682 L 68.304346,38.739226 L 66.043063,38.739226 L 63.78178,38.739226 L 63.78178,30.181063 z"
     id="path5144"
     transform="scale(6.3937342,6.3937342)"
     inkscape:export-filename="/home/jordi/dev/gbrainy/data/app-graphics/verbal-games-32.png"
     inkscape:export-xdpi="28.793007"
     inkscape:export-ydpi="28.793007" />
  <path
     style="opacity:1;fill:#b02b2c;fill-opacity:0.98431373;fill-rule:nonzero;stroke:none;stroke-width:4.13209677000000040;stroke-linecap:butt;stroke-linejoin:miter;marker:none;marker-start:none;marker-mid:none;marker-end:none;stroke-miterlimit:4;stroke-dasharray:none;stroke-dashoffset:0;stroke-opacity:1;visibility:visible;display:inline;overflow:visible;enable-background:accumulate"
     d="M 6.8048359,99.490675 C 4.2282528,98.798283 2.2352063,97.0765 0.98868721,94.466132 L 0.19138498,92.796478 L 0.1308062,52.605615 C 0.094157762,28.297548 0.15277576,11.271174 0.2791289,9.5209666 C 0.53024704,6.0425893 0.94155449,5.0185998 2.8690823,3.07305 C 4.5051256,1.4217147 5.8895979,0.67781325 7.9054069,0.36695047 C 9.0700298,0.18735256 20.869016,0.12974421 51.089005,0.15610551 L 92.670149,0.19237696 L 93.771466,0.65767232 C 95.421826,1.3549112 96.27944,1.9465337 97.433752,3.1841263 C 99.034237,4.90004 99.586899,6.3111314 99.77611,9.1648171 C 99.863035,10.475624 99.940947,29.807386 99.949267,52.124289 L 99.96439,92.700471 L 99.208715,94.292909 C 98.132077,96.561688 96.842871,97.905088 94.724888,98.965169 L 92.981016,99.838004 L 50.486127,99.823748 C 13.792428,99.811433 7.8292696,99.765964 6.8048381,99.490675 L 6.8048359,99.490675 z M 15.981948,92.614172 C 16.995486,91.84111 17.417954,90.99945 17.447348,89.694736 C 17.478498,88.312452 16.906932,87.154303 15.847663,86.453311 C 15.160529,85.998585 14.740113,85.890964 13.660734,85.893475 C 12.035585,85.897258 11.109126,86.335111 10.38816,87.440128 C 9.0488034,89.492937 9.6756812,91.815873 11.891151,93.009576 C 12.925471,93.566877 14.995181,93.366818 15.981955,92.61417 L 15.981948,92.614172 z M 23.092769,87.027051 C 25.250401,86.567486 26.977659,84.856443 27.369456,82.790498 C 27.815458,80.438743 26.974346,78.379272 25.010855,77.015439 C 24.081614,76.37 23.910841,76.330141 22.074281,76.330141 C 20.320165,76.330141 20.033571,76.389162 19.220773,76.917779 C 16.748255,78.525827 15.865744,81.481359 17.111584,83.981437 C 17.769358,85.301415 19.183945,86.543023 20.497295,86.953134 C 21.670567,87.319508 21.713876,87.320736 23.092763,87.027044 L 23.092769,87.027051 z M 32.774852,76.642015 C 35.162709,76.091526 37.557831,74.402251 38.80866,72.386381 L 39.407268,71.421649 L 40.707242,71.546564 C 41.422227,71.615259 44.932157,71.731689 48.507086,71.805291 C 55.639989,71.952145 58.638704,71.733467 63.997158,70.675691 C 78.596587,67.793714 90.239349,60.576367 94.719883,51.630635 C 98.798508,43.487372 97.025799,34.942064 89.759832,27.720728 C 81.165899,19.179587 66.328538,14.059046 50.132053,14.044742 C 45.394452,14.040554 42.313457,14.288649 37.892791,15.030295 C 22.393539,17.630566 10.368184,24.803212 5.4083323,34.405979 C 3.7385504,37.638861 3.44132,38.9484 3.44132,43.072472 C 3.44132,46.894153 3.5939066,47.657548 5.000342,50.872316 C 7.2698951,56.059952 12.98288,61.595676 19.646157,65.063699 L 21.311294,65.930349 L 21.316836,67.01366 C 21.324464,68.506893 21.866385,70.672008 22.544224,71.917422 C 23.222572,73.163772 24.647945,74.69465 25.817441,75.432918 C 27.732381,76.641771 30.608112,77.14153 32.774848,76.642018 L 32.774852,76.642015 z"
     id="path5146"
     transform="scale(6.3937342,6.3937342)"
     inkscape:export-filename="/home/jordi/dev/gbrainy/data/app-graphics/verbal-games-32.png"
     inkscape:export-xdpi="28.793007"
     inkscape:export-ydpi="28.793007" />
  <path
     style="opacity:1;fill:#b02b2c;fill-opacity:1;fill-rule:nonzero;stroke:none;stroke-width:4.13209677000000040;stroke-linecap:butt;stroke-linejoin:miter;marker:none;marker-start:none;marker-mid:none;marker-end:none;stroke-miterlimit:4;stroke-dasharray:none;stroke-dashoffset:0;stroke-opacity:1;visibility:visible;display:inline;overflow:visible;enable-background:accumulate"
     d="M 23.649923,30.289468 L 23.708916,21.622901 L 25.97292,21.622901 L 28.236925,21.622901 L 28.297213,24.531411 L 28.357488,27.439917 L 29.549131,26.888011 C 32.531367,25.506808 35.888008,26.851206 36.700225,29.752159 C 37.044092,30.980357 37.06559,33.821619 36.739621,34.960455 C 36.039663,37.405873 34.309389,38.779414 31.943053,38.768096 C 30.549262,38.761431 30.107074,38.595615 28.844979,37.606359 L 28.032495,36.969515 L 28.032495,37.962706 L 28.032495,38.955888 L 25.811706,38.955962 L 23.590917,38.95604 L 23.649923,30.289468 z M 31.37837,35.251224 C 31.802264,35.001129 32.156539,34.733009 32.165656,34.655405 C 32.174767,34.577805 32.23808,34.319314 32.306335,34.080986 C 32.574715,33.143878 32.418885,30.722719 32.090186,30.722719 C 31.989341,30.722719 31.964078,30.630114 32.034029,30.516927 C 32.209935,30.232304 31.30989,29.762112 30.524112,29.728133 C 30.073753,29.708657 29.660448,29.900891 29.178403,30.354034 C 28.795749,30.713739 28.529226,31.083356 28.586115,31.175403 C 28.643,31.26745 28.590461,31.404005 28.469353,31.478854 C 28.072409,31.724178 28.220463,33.550085 28.700253,34.326401 C 29.176652,35.097232 29.901628,35.705953 30.343275,35.705953 C 30.488696,35.705953 30.95449,35.501326 31.378377,35.251226 L 31.37837,35.251224 z"
     id="path5148"
     transform="scale(6.3937342,6.3937342)"
     inkscape:export-filename="/home/jordi/dev/gbrainy/data/app-graphics/verbal-games-32.png"
     inkscape:export-xdpi="28.793007"
     inkscape:export-ydpi="28.793007" />
  <path
     style="opacity:1;fill:#b02b2b;fill-opacity:1;fill-rule:nonzero;stroke:none;stroke-width:4.13209677000000040;stroke-linecap:butt;stroke-linejoin:miter;marker:none;marker-start:none;marker-mid:none;marker-end:none;stroke-miterlimit:4;stroke-dasharray:none;stroke-dashoffset:0;stroke-opacity:1;visibility:visible;display:inline;overflow:visible;enable-background:accumulate"
     d="M 39.732261,30.289395 L 39.732261,21.622901 L 42.115547,21.622901 L 44.498832,21.622901 L 44.498832,30.289395 L 44.498832,38.955888 L 42.115547,38.955888 L 39.732261,38.955888 L 39.732261,30.289395 z"
     id="path5150"
     transform="scale(6.3937342,6.3937342)"
     inkscape:export-filename="/home/jordi/dev/gbrainy/data/app-graphics/verbal-games-32.png"
     inkscape:export-xdpi="28.793007"
     inkscape:export-ydpi="28.793007" />
  <path
     style="opacity:1;fill:#cccccc;fill-opacity:1;fill-rule:nonzero;stroke:none;stroke-width:4.13209677;stroke-linecap:butt;stroke-linejoin:miter;marker:none;marker-start:none;marker-mid:none;marker-end:none;stroke-miterlimit:4;stroke-dasharray:none;stroke-dashoffset:0;stroke-opacity:1;visibility:visible;display:inline;overflow:visible;enable-background:accumulate"
     d="M 50.054746,38.715984 C 47.933851,38.217843 47.175633,37.165685 47.281747,34.867979 C 47.336827,33.675272 48.588611,32.607664 50.511212,32.113663 C 51.375153,31.89168 52.082014,31.637212 52.082014,31.548181 C 52.082014,31.459148 52.229503,31.442903 52.409766,31.512077 C 52.590024,31.581253 52.86712,31.530287 53.025522,31.398825 C 53.183926,31.267365 53.371194,31.21747 53.441674,31.28795 C 53.512161,31.358433 53.694056,31.339317 53.845899,31.245471 C 53.99774,31.151628 54.321096,31.052492 54.564466,31.025171 C 55.373992,30.93429 56.198598,30.520768 56.198598,30.205685 C 56.198598,29.74409 54.943417,28.772758 54.346935,28.772758 C 53.725121,28.772758 52.332257,29.501476 51.826851,30.09122 C 51.578486,30.381023 51.415138,30.437351 51.311127,30.269057 C 51.217473,30.117534 50.796065,30.063639 50.216086,30.12901 C 49.697535,30.187459 49.326009,30.149957 49.390457,30.045676 C 49.454901,29.941392 49.185018,29.849217 48.790701,29.840841 C 48.096255,29.826088 46.931649,29.468691 47.477939,29.437975 C 47.626895,29.429601 47.748767,29.279891 47.748767,29.105292 C 47.748767,28.655748 48.987476,27.300594 49.785055,26.877585 C 50.295072,26.607088 51.305776,26.492253 53.978202,26.401162 C 55.914831,26.335149 57.523554,26.329891 57.55313,26.389473 C 57.5827,26.449055 57.986158,26.691123 58.449692,26.9274 C 60.068877,27.752755 60.327444,28.456522 60.658129,32.938404 C 61.099752,38.923991 61.105041,38.513106 60.586011,38.548197 C 60.377473,38.562295 60.499346,38.64826 60.856839,38.739226 C 61.286595,38.84858 60.717663,38.913305 59.177706,38.930255 C 57.096867,38.953158 56.847766,38.91547 56.840907,38.576729 C 56.831801,38.126795 56.217437,36.985593 56.206277,37.397874 C 56.20205,37.553862 56.112148,37.628058 56.006486,37.562756 C 55.900831,37.497449 55.693071,37.590181 55.544816,37.768819 C 54.963136,38.469698 51.528799,39.062204 50.054741,38.715984 L 50.054746,38.715984 z M 54.580402,35.999149 C 55.224532,35.683754 55.705278,35.350837 55.648729,35.259338 C 55.592178,35.16784 55.653606,35.057078 55.785233,35.013203 C 55.916864,34.969325 56.07397,34.495029 56.134365,33.959208 C 56.232816,33.085704 56.197021,32.981437 55.78806,32.950632 C 55.537202,32.931737 55.331949,33.004653 55.331949,33.11267 C 55.331949,33.220689 55.185702,33.252948 55.006956,33.184357 C 54.828209,33.115763 54.681962,33.173329 54.681962,33.312274 C 54.681962,33.45122 54.584464,33.504646 54.4653,33.430999 C 54.346135,33.357351 54.126765,33.374478 53.97781,33.46906 C 53.828854,33.563644 53.658233,33.651331 53.59865,33.663928 C 53.539068,33.676527 53.124702,33.849948 52.677836,34.049312 C 51.971807,34.364298 51.865352,34.507295 51.865352,35.140677 C 51.865352,35.541558 52.011599,35.990931 52.190345,36.139278 C 52.369092,36.287624 52.515339,36.328812 52.515339,36.230805 C 52.515339,36.132797 52.632336,36.16961 52.775334,36.312608 C 53.133869,36.671147 53.24876,36.651194 54.580406,35.999151 L 54.580402,35.999149 z"
     id="path5152"
     transform="scale(6.3937342,6.3937342)"
     inkscape:export-filename="/home/jordi/dev/gbrainy/data/app-graphics/verbal-games-32.png"
     inkscape:export-xdpi="28.793007"
     inkscape:export-ydpi="28.793007" />
  <path
     style="opacity:1;fill:#b02b2c;fill-opacity:1;fill-rule:nonzero;stroke:none;stroke-width:4.13209677000000040;stroke-linecap:butt;stroke-linejoin:miter;marker:none;marker-start:none;marker-mid:none;marker-end:none;stroke-miterlimit:4;stroke-dasharray:none;stroke-dashoffset:0;stroke-opacity:1;visibility:visible;display:inline;overflow:visible;enable-background:accumulate"
     d="M 63.78178,30.181063 L 63.78178,21.622901 L 66.056735,21.622901 L 68.331689,21.622901 L 68.331689,24.790219 L 68.331689,27.957538 L 69.090094,27.379078 C 70.207638,26.526683 71.209073,26.17281 72.503739,26.17281 C 74.225771,26.17281 75.449567,26.867152 76.131533,28.231102 C 76.650678,29.269407 76.676331,29.510199 76.748566,34.02682 L 76.823964,38.739226 L 74.419446,38.739226 L 72.014949,38.739226 L 72.014949,34.730973 C 72.014949,31.011602 71.983728,30.69149 71.581624,30.289395 C 70.881285,29.589047 69.774422,29.64415 68.981676,30.418831 C 68.449358,30.939007 68.43885,31.015363 68.372183,34.843682 L 68.304346,38.739226 L 66.043063,38.739226 L 63.78178,38.739226 L 63.78178,30.181063 z"
     id="path5154"
     transform="scale(6.3937342,6.3937342)"
     inkscape:export-filename="/home/jordi/dev/gbrainy/data/app-graphics/verbal-games-32.png"
     inkscape:export-xdpi="28.793007"
     inkscape:export-ydpi="28.793007" />
  <path
     style="opacity:1;fill:#b02b2c;fill-opacity:1;fill-rule:nonzero;stroke:none;stroke-width:4.13209677000000040;stroke-linecap:butt;stroke-linejoin:miter;marker:none;marker-start:none;marker-mid:none;marker-end:none;stroke-miterlimit:4;stroke-dasharray:none;stroke-dashoffset:0;stroke-opacity:1;visibility:visible;display:inline;overflow:visible;enable-background:accumulate"
     d="M 30.33448,62.687104 C 29.872693,62.522501 29.165832,62.068915 28.763681,61.679135 L 28.032495,60.970443 L 28.032495,61.879593 L 28.032495,62.788745 L 25.865872,62.788745 L 23.699248,62.788745 L 23.699248,54.230583 L 23.699248,45.67242 L 25.974203,45.67242 L 28.249157,45.67242 L 28.249157,48.597362 C 28.249157,51.2894 28.387511,51.958196 28.804755,51.28308 C 29.125754,50.763704 30.762956,50.231845 32.040748,50.231845 C 34.438652,50.231847 36.152603,51.536326 36.839693,53.884296 C 37.321173,55.529634 37.15654,58.400579 36.493805,59.916158 C 35.387488,62.446141 32.854889,63.585503 30.334482,62.687106 L 30.33448,62.687104 z M 31.65913,59.207429 C 32.571161,58.568613 32.872359,56.112137 32.202909,54.772488 C 31.374598,53.114945 29.434578,53.157584 28.665983,54.850222 C 27.982084,56.35635 28.279297,58.478618 29.280602,59.238886 C 29.79381,59.628554 31.08221,59.611515 31.659126,59.207429 L 31.65913,59.207429 z"
     id="path5156"
     transform="scale(6.3937342,6.3937342)"
     inkscape:export-filename="/home/jordi/dev/gbrainy/data/app-graphics/verbal-games-32.png"
     inkscape:export-xdpi="28.793007"
     inkscape:export-ydpi="28.793007" />
  <path
     style="opacity:1;fill:#b02b2c;fill-opacity:1;fill-rule:nonzero;stroke:none;stroke-width:4.13209677000000040;stroke-linecap:butt;stroke-linejoin:miter;marker:none;marker-start:none;marker-mid:none;marker-end:none;stroke-miterlimit:4;stroke-dasharray:none;stroke-dashoffset:0;stroke-opacity:1;visibility:visible;display:inline;overflow:visible;enable-background:accumulate"
     d="M 39.732261,54.230583 L 39.732261,45.67242 L 42.115547,45.67242 L 44.498832,45.67242 L 44.498832,54.230583 L 44.498832,62.788745 L 42.115547,62.788745 L 39.732261,62.788745 L 39.732261,54.230583 z"
     id="path5158"
     transform="scale(6.3937342,6.3937342)"
     inkscape:export-filename="/home/jordi/dev/gbrainy/data/app-graphics/verbal-games-32.png"
     inkscape:export-xdpi="28.793007"
     inkscape:export-ydpi="28.793007" />
  <path
     style="opacity:1;fill:#b02b2c;fill-opacity:1;fill-rule:nonzero;stroke:none;stroke-width:4.13209677000000040;stroke-linecap:butt;stroke-linejoin:miter;marker:none;marker-start:none;marker-mid:none;marker-end:none;stroke-miterlimit:4;stroke-dasharray:none;stroke-dashoffset:0;stroke-opacity:1;visibility:visible;display:inline;overflow:visible;enable-background:accumulate"
     d="M 49.70665,62.75103 C 47.51763,62.122965 46.489324,59.913651 47.44684,57.895836 C 47.949366,56.836842 48.916766,56.342484 51.688089,55.72848 C 53.036815,55.429663 54.607116,55.034454 55.177662,54.850237 C 56.079114,54.559179 56.197281,54.454072 56.079649,54.047947 C 55.820033,53.151632 55.113588,52.767308 53.933972,52.880655 C 53.070456,52.963628 52.74725,53.114028 52.306728,53.637877 L 51.757021,54.291558 L 49.644563,54.064621 C 48.482711,53.939804 47.532105,53.76181 47.532105,53.669078 C 47.532105,53.256755 48.034827,52.237044 48.467352,51.772046 C 49.515753,50.644938 50.468697,50.361955 53.54671,50.26371 C 57.836429,50.12679 59.286752,50.635175 60.170751,52.58565 C 60.559095,53.442497 60.639851,54.167025 60.752572,57.805511 C 60.824567,60.129215 60.961027,62.201048 61.055828,62.409586 C 61.213729,62.756943 61.045937,62.788745 59.055192,62.788745 L 56.882188,62.788745 L 56.634105,62.037026 L 56.386009,61.285318 L 55.555012,61.83524 C 53.942634,62.902267 51.543266,63.277977 49.706645,62.751026 L 49.70665,62.75103 z M 55.348942,59.621817 C 55.79017,59.180585 56.017367,58.690809 56.116579,57.966979 C 56.282616,56.755578 56.300798,56.761028 54.190741,57.389428 C 51.870205,58.080512 51.088663,59.202413 52.266389,60.151821 C 52.886003,60.651308 54.617083,60.353675 55.34894,59.621817 L 55.348942,59.621817 z"
     id="path5160"
     transform="scale(6.3937342,6.3937342)"
     inkscape:export-filename="/home/jordi/dev/gbrainy/data/app-graphics/verbal-games-32.png"
     inkscape:export-xdpi="28.793007"
     inkscape:export-ydpi="28.793007" />
  <path
     style="opacity:1;fill:#b02b2c;fill-opacity:1;fill-rule:nonzero;stroke:none;stroke-width:4.13209677000000040;stroke-linecap:butt;stroke-linejoin:miter;marker:none;marker-start:none;marker-mid:none;marker-end:none;stroke-miterlimit:4;stroke-dasharray:none;stroke-dashoffset:0;stroke-opacity:1;visibility:visible;display:inline;overflow:visible;enable-background:accumulate"
     d="M 63.78178,54.230583 L 63.78178,45.67242 L 66.056735,45.67242 L 68.331689,45.67242 L 68.331689,48.832226 L 68.331689,51.99204 L 69.167161,51.330343 C 70.288345,50.442333 70.939849,50.222329 72.448274,50.222329 C 73.89833,50.222329 74.719263,50.478426 75.446295,51.157576 C 76.500228,52.14209 76.627907,52.81872 76.731536,57.968008 L 76.828536,62.788745 L 74.421742,62.788745 L 72.014949,62.788745 L 72.014949,58.770647 C 72.014949,54.793393 72.009532,54.747136 71.483151,54.220735 C 70.8742,53.611799 70.306566,53.552869 69.427741,54.007338 C 68.505582,54.484199 68.331689,55.315326 68.331689,59.246147 L 68.331689,62.788745 L 66.056735,62.788745 L 63.78178,62.788745 L 63.78178,54.230583 z"
     id="path5162"
     transform="scale(6.3937342,6.3937342)"
     inkscape:export-filename="/home/jordi/dev/gbrainy/data/app-graphics/verbal-games-32.png"
     inkscape:export-xdpi="28.793007"
     inkscape:export-ydpi="28.793007" />
  <path
     style="opacity:1;fill:#b02b2c;fill-opacity:1;fill-rule:nonzero;stroke:none;stroke-width:4.13209677000000040;stroke-linecap:butt;stroke-linejoin:miter;marker:none;marker-start:none;marker-mid:none;marker-end:none;stroke-miterlimit:4;stroke-dasharray:none;stroke-dashoffset:0;stroke-opacity:1;visibility:visible;display:inline;overflow:visible;enable-background:accumulate"
     d="M 50.132053,38.754427 C 49.714978,38.671029 49.154364,38.483813 48.886245,38.338394 C 48.618125,38.192974 48.398754,38.126173 48.398754,38.189948 C 48.398754,38.253724 48.217688,38.135279 47.996382,37.926742 C 47.775072,37.718204 47.597821,37.498834 47.602479,37.439252 C 47.607133,37.37967 47.506717,36.976704 47.379323,36.543771 C 47.052267,35.432319 47.351894,34.076134 48.096114,33.299335 C 48.506106,32.871403 49.223243,32.503051 50.234966,32.200744 C 51.072097,31.950608 51.854519,31.675258 51.973683,31.58886 C 52.092847,31.502461 52.336592,31.425477 52.515339,31.417783 C 52.983832,31.39762 55.368171,30.718579 55.820497,30.476502 C 56.350193,30.193019 55.967829,29.512327 55.026828,29.063595 C 54.361046,28.746107 54.247233,28.753103 53.306282,29.169331 C 52.752101,29.414469 52.298676,29.723776 52.298676,29.856674 C 52.298676,29.989573 52.200489,30.037622 52.080484,29.963454 C 51.960482,29.889286 51.804485,29.979247 51.733833,30.163362 C 51.632947,30.426249 51.512092,30.448199 51.170893,30.265594 C 50.931929,30.137707 50.405435,30.095159 50.000907,30.171049 C 49.545756,30.256438 49.265404,30.222702 49.265404,30.082549 C 49.265404,29.957984 49.046033,29.85474 48.777913,29.853113 C 48.509794,29.851483 48.075494,29.792525 47.812804,29.722093 C 47.354154,29.599117 47.349262,29.571278 47.68977,29.020897 C 47.884788,28.705673 48.294717,28.170942 48.600714,27.8326 C 49.651234,26.671049 50.177305,26.530745 53.968053,26.401162 L 57.479053,26.281141 L 58.5623,26.977048 C 60.198534,28.028218 60.331372,28.432588 60.737765,33.599347 C 60.932504,36.075224 61.018163,38.220157 60.92811,38.365867 C 60.82947,38.525458 60.911977,38.689365 61.135601,38.778112 C 61.339775,38.85914 60.458722,38.932285 59.177706,38.940659 C 57.245049,38.953295 56.848585,38.900568 56.848585,38.630895 C 56.848585,38.452148 56.745333,38.305901 56.619136,38.305901 C 56.492939,38.305901 56.449944,38.208403 56.523592,38.089239 C 56.733923,37.748914 56.418771,37.383279 56.125143,37.626968 C 55.986802,37.741788 55.824856,37.83881 55.765274,37.842575 C 55.705692,37.846341 55.304712,37.996596 54.874209,38.176471 C 54.155577,38.476733 51.616792,38.984106 51.107034,38.929336 C 50.987869,38.916533 50.549128,38.837822 50.132053,38.754425 L 50.132053,38.754427 z M 55.116476,35.654923 C 55.576528,35.367622 56.198598,34.140295 56.198598,33.519943 C 56.198598,33.165704 56.084647,33.098385 55.602777,33.167953 C 55.275075,33.215263 54.860709,33.307432 54.681962,33.372773 C 54.503216,33.438112 53.901534,33.653695 53.344889,33.851846 C 52.788238,34.049996 52.216743,34.351972 52.074886,34.522899 C 51.693929,34.981924 52.00324,35.867503 52.66577,36.214637 C 53.162403,36.474855 53.348726,36.473863 53.985941,36.207617 C 54.393996,36.037117 54.902743,35.788408 55.116483,35.654925 L 55.116476,35.654923 z"
     id="path5166"
     transform="scale(6.3937342,6.3937342)"
     inkscape:export-filename="/home/jordi/dev/gbrainy/data/app-graphics/verbal-games-32.png"
     inkscape:export-xdpi="28.793007"
     inkscape:export-ydpi="28.793007" />
</svg>
