<?xml version="1.0" encoding="utf-8"?>
<!DOCTYPE svg PUBLIC "-//W3C//DTD SVG 1.1//EN" "http://www.w3.org/Graphics/SVG/1.1/DTD/svg11.dtd">
<svg version="1.1" id="Layer_1" xmlns="http://www.w3.org/2000/svg" xmlns:xlink="http://www.w3.org/1999/xlink" x="0px" y="0px"
	 width="183.552px" height="40.46px" viewBox="0 0 183.552 40.46" enable-background="new 0 0 183.552 40.46" xml:space="preserve">
<g>
	<rect x="91.418" y="17.121" stroke="#000000" stroke-miterlimit="10" width="3.216" height="10.984"/>
	<g>
		<path fill="none" d="M188.802,20.604v-8.498h-7.362c0.028,0.047,0.044,0.095,0.044,0.142c0,1.878-19.117,3.399-42.698,3.399
			c-23.58,0.001-42.696-1.52-42.696-3.397c0-0.047,0.015-0.095,0.039-0.142h-5.326v8.498L188.802,20.604z"/>
		<path d="M138.786,15.646c23.581,0,42.698-1.521,42.698-3.399c0-0.047-0.016-0.095-0.044-0.142l-85.312,0.002
			c-0.024,0.047-0.039,0.095-0.039,0.142C96.089,14.127,115.206,15.647,138.786,15.646z"/>
	</g>
	<path stroke="#000000" stroke-miterlimit="10" d="M146.901,17.695c0,0.404-1.022,0.732-2.285,0.732H41.435
		c-1.262,0-2.284-0.328-2.284-0.732l0,0c0-0.404,1.022-0.732,2.284-0.732h103.181C145.878,16.963,146.901,17.291,146.901,17.695
		L146.901,17.695z"/>
	<path stroke="#000000" stroke-miterlimit="10" d="M114.921,26.665c0,0.934-1.918,1.69-4.285,1.69H75.415
		c-2.366,0-4.283-0.757-4.283-1.69v-0.282c0-0.933,1.917-1.689,4.283-1.689h35.222c2.367,0,4.285,0.757,4.285,1.689V26.665z"/>
	<g>
		<path fill="none" d="M94.75,20.604v-8.498h-7.36c0.027,0.047,0.041,0.095,0.041,0.142c0,1.878-19.115,3.399-42.696,3.399
			c-23.581,0.001-42.697-1.52-42.697-3.397c0-0.047,0.015-0.095,0.04-0.142H-3.25v8.498L94.75,20.604z"/>
		<path d="M44.734,15.646c23.581,0,42.696-1.521,42.696-3.399c0-0.047-0.014-0.095-0.041-0.142L2.077,12.107
			c-0.025,0.047-0.04,0.095-0.04,0.142C2.037,14.127,21.153,15.647,44.734,15.646z"/>
	</g>
</g>
</svg>
