<?xml version="1.0" encoding="utf-8"?>
<!-- Generator: Adobe Illustrator 16.0.0, SVG Export Plug-In . SVG Version: 6.00 Build 0)  -->
<!DOCTYPE svg PUBLIC "-//W3C//DTD SVG 1.1//EN" "http://www.w3.org/Graphics/SVG/1.1/DTD/svg11.dtd">
<svg version="1.1"
	 id="svg2_copy" xmlns:dc="http://purl.org/dc/elements/1.1/" xmlns:cc="http://creativecommons.org/ns#" xmlns:rdf="http://www.w3.org/1999/02/22-rdf-syntax-ns#" xmlns:svg="http://www.w3.org/2000/svg" xmlns:sodipodi="http://sodipodi.sourceforge.net/DTD/sodipodi-0.dtd" xmlns:inkscape="http://www.inkscape.org/namespaces/inkscape" inkscape:export-ydpi="90" inkscape:export-xdpi="90" inkscape:export-filename="C:\Documents and Settings\Piotrek\Pulpit\analog clock.png" inkscape:output_extension="org.inkscape.output.svg.inkscape" sodipodi:version="0.32" sodipodi:docname="clock3.svg" inkscape:version="0.48.3.1 r9886"
	 xmlns="http://www.w3.org/2000/svg" xmlns:xlink="http://www.w3.org/1999/xlink" x="0px" y="0px" width="400px" height="400px"
	 viewBox="0 0 400 400" enable-background="new 0 0 400 400" xml:space="preserve">
<defs>
	
	
		<inkscape:perspective  inkscape:persp3d-origin="372.04724 : 350.78739 : 1" id="perspective10" inkscape:vp_z="744.09448 : 526.18109 : 1" inkscape:vp_y="0 : 1000 : 0" inkscape:vp_x="0 : 526.18109 : 1" sodipodi:type="inkscape:persp3d">
		</inkscape:perspective>
</defs>
<sodipodi:namedview  inkscape:window-maximized="1" inkscape:window-y="27" inkscape:window-x="0" inkscape:window-height="709" inkscape:window-width="1152" inkscape:guide-bbox="true" inkscape:current-layer="layer1" inkscape:document-units="px" inkscape:pageshadow="2" inkscape:pageopacity="0.0" showguides="false" showgrid="false" inkscape:cy="202.36656" inkscape:cx="387.18808" inkscape:zoom="0.95282639" objecttolerance="10" guidetolerance="10" gridtolerance="10000" borderopacity="1.0" bordercolor="#666666" pagecolor="#ffffff" id="base">
	<sodipodi:guide  position="300,352.63507" orientation="1,0" id="guide3076"></sodipodi:guide>
	<sodipodi:guide  position="247.1594,300" orientation="0,1" id="guide3078"></sodipodi:guide>
</sodipodi:namedview>
<g id="layer1_1_" transform="translate(-278.33586,-412.88999)" inkscape:groupmode="layer" inkscape:label="Layer 1">
	
		<path id="path3949_2_" sodipodi:cx="-485.71429" sodipodi:cy="332.36218" sodipodi:rx="262.85715" sodipodi:ry="262.85715" sodipodi:type="arc" fill="#585857" d="
		M662.588,612.871c0.041,101.729-82.42,184.229-184.179,184.271c-101.759,0.04-184.284-82.394-184.326-184.123
		c0-0.048,0-0.097,0-0.147c-0.021-101.728,82.455-184.212,184.214-184.233s184.269,82.429,184.29,184.158
		C662.588,612.821,662.588,612.847,662.588,612.871z"/>
	
		<path id="path3949_1_" sodipodi:cx="-485.71429" sodipodi:cy="332.36218" sodipodi:rx="262.85715" sodipodi:ry="262.85715" sodipodi:type="arc" fill="#222221" d="
		M655.501,612.872c0.039,97.846-79.25,177.197-177.096,177.237c-97.844,0.039-177.195-79.249-177.235-177.095
		c0-0.046,0-0.093,0-0.142c-0.02-97.844,79.283-177.18,177.128-177.2c97.846-0.021,177.182,79.282,177.202,177.127
		C655.501,612.824,655.501,612.848,655.501,612.872z"/>
	
		<radialGradient id="path2383_2_" cx="-143.2313" cy="395.3285" r="262.897" gradientTransform="matrix(0.6549 0 0 -0.6549 572.1354 871.7828)" gradientUnits="userSpaceOnUse">
		<stop  offset="0" style="stop-color:#F0F7F9"/>
		<stop  offset="1" style="stop-color:#CCCCCC"/>
	</radialGradient>
	
		<path id="path2383_1_" sodipodi:cx="-485.71429" sodipodi:cy="332.36218" sodipodi:rx="262.85715" sodipodi:ry="262.85715" sodipodi:type="arc" fill="url(#path2383_2_)" d="
		M650.477,612.873c0.037,95.071-77.001,172.171-172.072,172.209c-95.07,0.038-172.171-77.001-172.209-172.071
		c0-0.046,0-0.092,0-0.138c-0.02-95.07,77.034-172.156,172.104-172.176c95.071-0.02,172.156,77.034,172.177,172.104
		C650.477,612.826,650.477,612.85,650.477,612.873L650.477,612.873z"/>
	<path id="path2385_1_" inkscape:connector-curvature="0" d="M473.512,454.065l1.208,21.317h7.25l1.209-21.317H473.512z
		 M403.121,472.928l-8.384,4.834l11.707,17.862l6.287-3.625L403.121,472.928z M553.57,472.928l-9.629,19.071l6.287,3.625
		l11.707-17.862L553.57,472.928z M343.209,529.29l-4.834,8.384l19.07,9.611l3.626-6.288L343.209,529.29L343.209,529.29z
		 M613.465,529.29l-17.863,11.707l3.625,6.288l19.072-9.611L613.465,529.29z M319.511,608.066v9.668l21.317-1.209v-7.25
		L319.511,608.066L319.511,608.066z M637.16,608.066l-21.316,1.208v7.25l21.316,1.209V608.066L637.16,608.066z M357.445,678.515
		l-19.07,9.609l4.834,8.365l17.862-11.707L357.445,678.515L357.445,678.515z M599.227,678.515l-3.625,6.268l17.863,11.707
		l4.834-8.365L599.227,678.515z M406.444,730.175l-11.707,17.844l8.384,4.834l9.61-19.053L406.444,730.175L406.444,730.175z
		 M550.229,730.175l-6.287,3.625l9.629,19.053l8.365-4.834L550.229,730.175z M474.72,750.398l-1.208,21.316h9.667l-1.209-21.316
		H474.72z"/>
	<g id="g2533_1_" transform="matrix(1.3206547,0,0,1.3206547,-86.612864,-130.49334)">
		<path id="text3054_1_" inkscape:connector-curvature="0" d="M339.288,574.693c-3.733,0-6.42-0.447-8.063-1.34
			c-1.642-0.896-2.376-2.319-2.202-4.268v-0.435h5.278v0.435c0,1.08,0.423,1.899,1.269,2.459c0.846,0.559,2.085,0.839,3.718,0.839
			c2.74,0,4.461-0.478,5.16-1.439c0.623-0.859,0.963-2.788,1.02-5.787l0,0c-2.351,1.009-4.839,1.508-7.464,1.5
			c-3.304,0-5.661-0.482-7.071-1.448c-1.409-0.964-2.113-2.577-2.113-4.836v-0.809c0-2.19,0.889-3.83,2.668-4.92
			c1.778-1.089,4.455-1.634,8.032-1.634c4.375,0,7.324,0.6,8.85,1.799c1.526,1.2,2.279,3.525,2.26,6.973v2.534
			c-0.019,4.079-0.806,6.828-2.361,8.248c-1.536,1.42-4.529,2.13-8.981,2.13l0,0V574.693z M345.293,560.26
			c0-1.59-0.389-2.672-1.167-3.247c-0.777-0.575-2.245-0.863-4.402-0.863c-2.002,0-3.431,0.315-4.287,0.945
			c-0.855,0.629-1.282,1.685-1.282,3.164v0.809c0,1.4,0.437,2.409,1.312,3.028c0.875,0.621,2.294,0.93,4.257,0.93
			c1.827,0,3.211-0.337,4.155-1.012c0.943-0.676,1.414-1.658,1.414-2.947V560.26L345.293,560.26z"/>
		<path id="text3058_1_" inkscape:connector-curvature="0" d="M521.404,559.744c0-1.049-0.398-1.797-1.195-2.242
			c-0.796-0.445-2.138-0.667-4.024-0.667c-1.709,0-3.007,0.272-3.891,0.817c-0.885,0.545-1.298,1.317-1.24,2.317v0.63h-5.334v-0.63
			c-0.215-1.74,0.588-3.081,2.405-4.026c1.817-0.944,4.513-1.417,8.089-1.417c3.441,0,6.055,0.402,7.843,1.207
			c1.788,0.804,2.682,1.982,2.682,3.531v0.615c0,1.799-0.787,3.069-2.361,3.809c-0.895,0.429-2.178,0.729-3.849,0.899l0,0
			c1.808,0.17,3.14,0.466,3.994,0.884c1.477,0.71,2.216,2.09,2.216,4.14v1.168c0,1.81-0.938,3.168-2.813,4.073
			c-1.875,0.904-4.699,1.355-8.469,1.355c-3.441,0-6.06-0.488-7.858-1.469c-1.798-0.979-2.638-2.374-2.521-4.182v-0.63h5.277v0.63
			c-0.04,1.13,0.354,1.967,1.18,2.511c0.827,0.544,2.105,0.816,3.833,0.816c2.081,0,3.616-0.285,4.608-0.862
			c0.991-0.574,1.486-1.457,1.486-2.646v-1.17c0-1.06-0.495-1.887-1.486-2.482c-0.992-0.595-2.371-0.892-4.139-0.892h-1.575v-2.43
			h0.554c2.294,0,3.965-0.242,5.014-0.727c1.05-0.485,1.574-1.257,1.574-2.317V559.744L521.404,559.744z"/>
		<path id="path3256_1_" inkscape:connector-curvature="0" d="M436.56,464.138c-3.691,0-6.387,0.434-8.116,1.314
			c-1.73,0.88-2.49,2.196-2.276,3.966v0.633h5.326v-0.633c-0.058-1.13,0.295-1.902,1.034-2.347c0.738-0.445,2.072-0.68,4.033-0.68
			c1.518,0,2.752,0.254,3.686,0.774c0.933,0.52,1.406,1.229,1.406,2.089c0,1.53-1.163,3.293-3.495,5.302
			c-2.333,2.01-6.484,4.784-12.413,8.354v1.29v1.291h21.61v-2.3H431c5.89-3.609,9.97-6.36,12.224-8.259
			c2.507-2.13,3.755-4.046,3.755-5.726c0-1.659-0.882-2.918-2.651-3.778C442.559,464.559,439.963,464.138,436.56,464.138z
			 M418.94,464.349c-1.244,0.64-2.396,1.136-3.427,1.525c-1.009,0.379-2.292,0.8-3.847,1.22v2.533
			c2.081-0.55,3.797-1.096,5.138-1.595l1.057-0.399v17.856h2.675h2.652v-21.141H418.94z"/>
		<path id="text3050_1_" inkscape:connector-curvature="0" d="M429.157,639.957c3.731,0,6.42,0.448,8.062,1.343
			c1.644,0.893,2.376,2.317,2.201,4.267v0.435h-5.277v-0.435c0-1.078-0.422-1.9-1.267-2.459c-0.845-0.561-2.085-0.84-3.718-0.84
			c-2.488,0-4.111,0.538-4.869,1.619c-0.661,0.93-1.02,2.76-1.079,5.488l0,0c2.352-0.918,4.917-1.38,7.698-1.38
			c3.129,0,5.364,0.482,6.705,1.448c1.341,0.964,2.011,2.576,2.011,4.836v0.809c0,2.189-0.907,3.829-2.725,4.92
			c-1.817,1.088-4.545,1.634-8.178,1.634c-3.771,0-6.526-0.55-8.267-1.65c-1.738-1.1-2.61-2.839-2.61-5.218v-2.535
			c0.02-5.079,0.748-8.397,2.187-9.957C421.449,640.732,424.492,639.957,429.157,639.957L429.157,639.957L429.157,639.957z
			 M423.179,655.149c0,1.59,0.39,2.672,1.166,3.246c0.777,0.575,2.235,0.864,4.375,0.864c2.001,0,3.43-0.315,4.286-0.945
			c0.856-0.63,1.282-1.686,1.282-3.165v-0.809c0-1.399-0.437-2.409-1.311-3.03c-0.876-0.618-2.294-0.929-4.257-0.929
			c-1.808,0-3.184,0.337-4.126,1.012c-0.944,0.674-1.415,1.659-1.415,2.948V655.149L423.179,655.149z"/>
		<path id="path3310_1_" inkscape:connector-curvature="0" d="M373.202,477.455c-1.244,0.639-2.394,1.158-3.425,1.548
			c-1.01,0.38-2.292,0.778-3.847,1.197v2.534c2.079-0.549,3.796-1.072,5.138-1.573l1.055-0.398v17.854h2.675h2.651v-21.162H373.202
			L373.202,477.455z M391.104,477.455c-1.244,0.639-2.372,1.158-3.401,1.548c-1.012,0.38-2.293,0.778-3.849,1.197v2.534
			c2.08-0.549,3.773-1.072,5.116-1.573l1.055-0.398v17.854h2.675h2.675v-21.162H391.104z"/>
		<path id="path3318_1_" inkscape:connector-curvature="0" d="M361.535,511.42c-3.693,0-6.41,0.459-8.188,1.384
			c-1.778,0.925-2.674,2.351-2.674,4.27v9.971c0,1.939,0.929,3.431,2.814,4.481c1.885,1.05,4.568,1.572,8.047,1.572
			c3.557,0,6.284-0.519,8.141-1.548c1.855-1.029,2.769-2.525,2.769-4.504v-9.971c0-1.999-0.847-3.456-2.559-4.34
			C368.176,511.85,365.383,511.42,361.535,511.42L361.535,511.42z M344.174,511.631c-1.244,0.64-2.371,1.159-3.401,1.549
			c-1.012,0.38-2.293,0.777-3.848,1.196v2.534c2.079-0.55,3.796-1.072,5.138-1.572l1.033-0.422v17.877h2.698h2.65v-21.162H344.174
			L344.174,511.631z M361.535,513.743c1.963,0,3.394,0.254,4.27,0.774c0.875,0.52,1.314,1.378,1.314,2.557v9.971
			c0,1.199-0.465,2.119-1.409,2.745c-0.941,0.625-2.348,0.915-4.175,0.915c-1.886,0-3.271-0.291-4.176-0.891
			c-0.904-0.599-1.361-1.519-1.361-2.768v-9.971c0-1.24,0.427-2.114,1.244-2.604C358.058,513.981,359.475,513.743,361.535,513.743
			L361.535,513.743z"/>
		<path id="text3283_1_" inkscape:connector-curvature="0" d="M359.276,609.029L359.276,609.029c1.789,0.2,3.11,0.534,3.966,1.004
			c1.477,0.809,2.215,2.375,2.215,4.694v-0.451c0,1.921-0.957,3.424-2.872,4.506c-1.914,1.086-4.573,1.628-7.974,1.628
			c-3.673,0-6.395-0.5-8.163-1.5c-1.77-1.001-2.655-2.545-2.655-4.635v0.451c0-2.17,0.816-3.699,2.451-4.588
			c1.009-0.552,2.467-0.924,4.373-1.124l0,0c-1.556-0.222-2.8-0.562-3.733-1.02c-1.633-0.821-2.449-2.121-2.449-3.9v0.422
			c0-1.85,0.89-3.279,2.668-4.283c1.779-1.004,4.311-1.507,7.594-1.507c3.577,0,6.187,0.461,7.828,1.387
			c1.643,0.924,2.465,2.393,2.465,4.403v-0.422c0,1.779-0.748,3.083-2.245,3.915C361.871,608.489,360.714,608.829,359.276,609.029
			L359.276,609.029z M354.698,607.844c1.692,0,2.94-0.3,3.748-0.899c0.807-0.6,1.21-1.525,1.21-2.774v0.419
			c0-1.257-0.389-2.167-1.167-2.72c-0.778-0.556-2.041-0.834-3.79-0.834c-1.631,0-2.861,0.299-3.687,0.893
			c-0.827,0.596-1.239,1.483-1.239,2.661v-0.419c0,1.25,0.407,2.174,1.224,2.774C351.792,607.544,353.027,607.844,354.698,607.844
			L354.698,607.844z M354.611,610.212c-1.982,0-3.392,0.314-4.228,0.939c-0.836,0.623-1.253,1.665-1.253,3.125v-0.448
			c0,1.619,0.385,2.724,1.152,3.313c0.768,0.59,2.211,0.884,4.329,0.884c1.982,0,3.396-0.322,4.242-0.967
			c0.845-0.643,1.268-1.721,1.268-3.23v0.448c0-1.571-0.388-2.637-1.165-3.209C358.197,610.499,356.749,610.212,354.611,610.212
			L354.611,610.212L354.611,610.212z"/>
		<path id="text3287_1_" inkscape:connector-curvature="0" d="M377.313,647.17l13.761-18.846l0,0h-15.801v-2.31h20.555v1.154v1.156
			L383.64,647.17H377.313z"/>
		<path id="text3291_1_" inkscape:connector-curvature="0" d="M481.595,642.576c0,2.39-0.782,4.071-2.347,5.046
			c-1.564,0.975-4.261,1.463-8.09,1.463c-3.792,0-6.43-0.355-7.918-1.065c-1.486-0.71-2.317-2.004-2.492-3.884v-0.63h5.277v0.63
			c0.116,0.887,0.54,1.542,1.269,1.957c0.729,0.413,1.832,0.621,3.309,0.621c2.255,0,3.771-0.308,4.55-0.923
			c0.776-0.614,1.165-1.812,1.165-3.589v-1.411c0-1.33-0.355-2.258-1.064-2.782c-0.708-0.525-1.968-0.787-3.776-0.787
			c-1.73,0-3.018,0.237-3.863,0.711c-0.846,0.475-1.25,1.189-1.21,2.138h-5.453l0.379-12.463l0,0h19.244v2.384H466.2l0,0
			l-0.204,6.733l0,0c0.913-0.47,1.672-0.819,2.274-1.049c1.361-0.51,3.023-0.766,4.986-0.766c3.11,0,5.277,0.458,6.502,1.371
			c1.225,0.917,1.837,2.544,1.837,4.883V642.576L481.595,642.576z"/>
		<path id="text3295_1_" inkscape:connector-curvature="0" d="M505.22,613.914h-14.842v-1.093v-1.096l12.772-13.78h3.703h3.702
			v13.661l0,0h4.724v2.309h-4.724l0,0v5.189h-5.336V613.914L505.22,613.914L505.22,613.914z M505.22,611.605L505.22,611.605v-11.037
			l0,0l0,0l-10.117,11.037l0,0H505.22z"/>
		<path id="text3299_1_" inkscape:connector-curvature="0" d="M514.031,513.673c0,1.68-1.256,3.585-3.762,5.713
			c-2.254,1.9-6.327,4.654-12.217,8.263l0,0h16.357v2.309h-21.605v-1.289v-1.29c5.929-3.569,10.06-6.359,12.393-8.368
			c2.332-2.009,3.498-3.779,3.498-5.309c0-0.86-0.466-1.55-1.4-2.069c-0.932-0.52-2.156-0.78-3.673-0.78
			c-1.965,0-3.316,0.222-4.053,0.667c-0.74,0.445-1.08,1.232-1.022,2.362v0.629h-5.335v-0.629c-0.213-1.77,0.546-3.094,2.276-3.974
			c1.728-0.88,4.441-1.32,8.134-1.32c3.402,0,5.987,0.435,7.755,1.304c1.77,0.86,2.653,2.119,2.653,3.779l0,0H514.031z"/>
		<path id="text3303_1_" inkscape:connector-curvature="0" d="M474.798,498.66V480.8l0,0l-1.049,0.405
			c-1.341,0.5-3.053,1.025-5.133,1.575v-2.534c1.555-0.42,2.838-0.82,3.85-1.2c1.03-0.39,2.168-0.905,3.41-1.545h4.258l0,0v21.159
			l0,0h-2.654H474.798L474.798,498.66z"/>
	</g>
</g>
</svg>
