<?xml version="1.0" encoding="UTF-8" standalone="no"?>

<svg
   xmlns:dc="http://purl.org/dc/elements/1.1/"
   xmlns:cc="http://creativecommons.org/ns#"
   xmlns:rdf="http://www.w3.org/1999/02/22-rdf-syntax-ns#"
   xmlns:svg="http://www.w3.org/2000/svg"
   xmlns="http://www.w3.org/2000/svg"
   xmlns:sodipodi="http://sodipodi.sourceforge.net/DTD/sodipodi-0.dtd"
   xmlns:inkscape="http://www.inkscape.org/namespaces/inkscape"
   version="1.1"
   id="Layer_1"
   x="0px"
   y="0px"
   width="283.46px"
   height="283.46px"
   viewBox="0 0 283.46 283.46"
   enable-background="new 0 0 283.46 283.46"
   xml:space="preserve"
   inkscape:version="0.48.4 r9939"
   sodipodi:docname="dartboard.svg"><metadata
   id="metadata181"><rdf:RDF><cc:Work
       rdf:about=""><dc:format>image/svg+xml</dc:format><dc:type
         rdf:resource="http://purl.org/dc/dcmitype/StillImage" /></cc:Work></rdf:RDF></metadata><defs
   id="defs179" /><sodipodi:namedview
   pagecolor="#ffffff"
   bordercolor="#666666"
   borderopacity="1"
   objecttolerance="10"
   gridtolerance="10"
   guidetolerance="10"
   inkscape:pageopacity="0"
   inkscape:pageshadow="2"
   inkscape:window-width="982"
   inkscape:window-height="637"
   id="namedview177"
   showgrid="false"
   inkscape:zoom="0.83256899"
   inkscape:cx="141.73"
   inkscape:cy="141.73"
   inkscape:window-x="0"
   inkscape:window-y="27"
   inkscape:window-maximized="0"
   inkscape:current-layer="Layer_1" />
<g
   id="g3"
   transform="matrix(1.6316379,0,0,1.6737975,-90.122908,-95.497327)">
	<g
   id="g5">
		<path
   stroke-miterlimit="10"
   d="m 141.814,141.708 0,0 0,0 z"
   id="path7"
   inkscape:connector-curvature="0"
   style="fill:#ffffff;stroke:#000000;stroke-width:0.60511321;stroke-miterlimit:10" />
		<path
   stroke-miterlimit="10"
   d="m 141.814,141.708 0,0 0,0 z"
   id="path9"
   inkscape:connector-curvature="0"
   style="fill:#ffffff;stroke:#000000;stroke-width:0.60511321;stroke-miterlimit:10" />
		<path
   stroke-miterlimit="10"
   d="m 141.814,141.708 0,0 0,0 z"
   id="path11"
   inkscape:connector-curvature="0"
   style="fill:#ffffff;stroke:#000000;stroke-width:0.60511321;stroke-miterlimit:10" />
		<path
   stroke-miterlimit="10"
   d="m 141.814,141.708 0,0 0,0 z"
   id="path13"
   inkscape:connector-curvature="0"
   style="fill:#ffffff;stroke:#000000;stroke-width:0.60511321;stroke-miterlimit:10" />
		<path
   stroke-miterlimit="10"
   d="m 141.814,141.708 0,0 0,0 z"
   id="path15"
   inkscape:connector-curvature="0"
   style="fill:#ffffff;stroke:#000000;stroke-width:0.60511321;stroke-miterlimit:10" />
		<path
   stroke-miterlimit="10"
   d="m 141.814,141.708 0,0 0,0 z"
   id="path17"
   inkscape:connector-curvature="0"
   style="fill:#ffffff;stroke:#000000;stroke-width:0.60511321;stroke-miterlimit:10" />
		<polygon
   stroke-miterlimit="10"
   points="141.814,141.708 141.814,141.708 141.814,141.708 "
   id="polygon19"
   style="fill:#ffffff;stroke:#000000;stroke-width:0.60511321;stroke-miterlimit:10" />
		<path
   stroke-miterlimit="10"
   d="m 141.814,141.708 0,0 0,0 z"
   id="path21"
   inkscape:connector-curvature="0"
   style="fill:#ffffff;stroke:#000000;stroke-width:0.60511321;stroke-miterlimit:10" />
		<path
   stroke-miterlimit="10"
   d="m 141.814,70.864 0,0 c -12.896,0 -24.984,3.453 -35.397,9.482 l 35.397,61.361 V 70.864 z"
   id="path23"
   inkscape:connector-curvature="0"
   style="fill:#ffffff;stroke:#000000;stroke-width:0.60511321;stroke-miterlimit:10" />
		<path
   stroke-miterlimit="10"
   d="m 106.422,80.022 0,0 C 95.254,86.475 86.51,95.515 80.504,105.947 l 61.31,35.427 -35.392,-61.352 z"
   id="path25"
   inkscape:connector-curvature="0"
   style="stroke:#000000;stroke-width:0.60511321;stroke-miterlimit:10" />
		<path
   stroke-miterlimit="10"
   d="m 80.514,105.952 0,0 c -6.447,11.178 -9.505,23.382 -9.494,35.422 h 70.794 l -61.3,-35.422 z"
   id="path27"
   inkscape:connector-curvature="0"
   style="fill:#ffffff;stroke:#000000;stroke-width:0.60511321;stroke-miterlimit:10" />
		<path
   stroke-miterlimit="10"
   d="m 70.865,141.417 0,0 c 0,12.907 3.451,25.007 9.475,35.427 l 61.309,-35.426 -70.784,-0.001 z"
   id="path29"
   inkscape:connector-curvature="0"
   style="stroke:#000000;stroke-width:0.60511321;stroke-miterlimit:10" />
		<path
   stroke-miterlimit="10"
   d="m 80.225,176.961 0,0 c 6.447,11.178 15.479,19.93 25.903,25.941 l 35.396,-61.363 -61.299,35.422 z"
   id="path31"
   inkscape:connector-curvature="0"
   style="fill:#ffffff;stroke:#000000;stroke-width:0.60511321;stroke-miterlimit:10" />
		<path
   stroke-miterlimit="10"
   d="m 106.255,203.016 0,0 c 11.167,6.451 23.362,9.513 35.393,9.502 v -70.855 l -35.393,61.353 z"
   id="path33"
   inkscape:connector-curvature="0"
   style="stroke:#000000;stroke-width:0.60511321;stroke-miterlimit:10" />
		<path
   stroke-miterlimit="10"
   d="m 141.647,212.596 0,0 c 12.895,0 24.984,-3.453 35.396,-9.481 l -35.396,-61.362 v 70.843 z"
   id="path35"
   inkscape:connector-curvature="0"
   style="fill:#ffffff;stroke:#000000;stroke-width:0.60511321;stroke-miterlimit:10" />
		<path
   stroke-miterlimit="10"
   d="m 177.082,203.182 0,0 C 188.25,196.729 196.994,187.688 203,177.256 l -61.309,-35.427 35.391,61.353 z"
   id="path37"
   inkscape:connector-curvature="0"
   style="stroke:#000000;stroke-width:0.60511321;stroke-miterlimit:10" />
		<path
   stroke-miterlimit="10"
   d="m 141.814,141.708 35.397,-61.361 c -10.414,-6.03 -22.503,-9.482 -35.397,-9.482 v 70.843 l 0,0 z"
   id="path39"
   inkscape:connector-curvature="0"
   style="stroke:#000000;stroke-width:0.60511321;stroke-miterlimit:10" />
		<path
   stroke-miterlimit="10"
   d="m 212.596,141.708 h -70.782 l 61.309,35.426 c 6.024,-10.421 9.473,-22.519 9.473,-35.426 l 0,0 z"
   id="path41"
   inkscape:connector-curvature="0"
   style="fill:#ffffff;stroke:#000000;stroke-width:0.60511321;stroke-miterlimit:10" />
		<path
   stroke-miterlimit="10"
   d="m 141.814,141.708 0,0 0,0 z"
   id="path43"
   inkscape:connector-curvature="0"
   style="fill:#ffffff;stroke:#000000;stroke-width:0.60511321;stroke-miterlimit:10" />
		<path
   stroke-miterlimit="10"
   d="m 141.814,141.708 0,0 0,0 z"
   id="path45"
   inkscape:connector-curvature="0"
   style="fill:#ffffff;stroke:#000000;stroke-width:0.60511321;stroke-miterlimit:10" />
		<path
   stroke-miterlimit="10"
   d="m 141.814,141.708 0,0 h 70.782 c 0,-12.906 -3.449,-25.005 -9.475,-35.427 l -61.307,35.427 0,0 z"
   id="path47"
   inkscape:connector-curvature="0"
   style="stroke:#000000;stroke-width:0.60511321;stroke-miterlimit:10" />
		<path
   stroke-miterlimit="10"
   d="m 141.814,141.708 61.309,-35.427 C 196.908,95.53 187.951,86.567 177.212,80.346 l -35.398,61.362 0,0 z"
   id="path49"
   inkscape:connector-curvature="0"
   style="fill:#ffffff;stroke:#000000;stroke-width:0.60511321;stroke-miterlimit:10" />
	</g>
	<g
   id="g51">
		<path
   stroke-miterlimit="10"
   d="m 141.834,141.663 0,0 0,0 z"
   id="path53"
   inkscape:connector-curvature="0"
   style="fill:#ffffff;stroke:#000000;stroke-width:0.60511321;stroke-miterlimit:10" />
		<path
   stroke-miterlimit="10"
   d="m 141.834,141.663 0,0 0,0 z"
   id="path55"
   inkscape:connector-curvature="0"
   style="fill:#ffffff;stroke:#000000;stroke-width:0.60511321;stroke-miterlimit:10" />
		<path
   stroke-miterlimit="10"
   d="m 141.834,141.663 0,0 0,0 z"
   id="path57"
   inkscape:connector-curvature="0"
   style="fill:#ffffff;stroke:#000000;stroke-width:0.60511321;stroke-miterlimit:10" />
		<path
   stroke-miterlimit="10"
   d="m 141.834,141.663 0,0 0,0 z"
   id="path59"
   inkscape:connector-curvature="0"
   style="fill:#ffffff;stroke:#000000;stroke-width:0.60511321;stroke-miterlimit:10" />
		<path
   stroke-miterlimit="10"
   d="m 141.836,141.663 0,0 0,0 z"
   id="path61"
   inkscape:connector-curvature="0"
   style="fill:#ffffff;stroke:#000000;stroke-width:0.60511321;stroke-miterlimit:10" />
		<path
   stroke-miterlimit="10"
   d="m 141.834,141.663 0,0 0,0 z"
   id="path63"
   inkscape:connector-curvature="0"
   style="fill:#ffffff;stroke:#000000;stroke-width:0.60511321;stroke-miterlimit:10" />
		<polygon
   stroke-miterlimit="10"
   points="141.834,141.663 141.834,141.663 141.834,141.663 141.834,141.663 141.836,141.663 "
   id="polygon65"
   style="fill:#ffffff;stroke:#000000;stroke-width:0.60511321;stroke-miterlimit:10" />
		<path
   stroke-miterlimit="10"
   d="m 141.836,141.663 0,0 0,0 z"
   id="path67"
   inkscape:connector-curvature="0"
   style="fill:#ffffff;stroke:#000000;stroke-width:0.60511321;stroke-miterlimit:10" />
		<path
   stroke-miterlimit="10"
   d="m 88.756,110.99 0,0 c -5.579,9.67 -8.222,20.23 -8.207,30.65 l 61.285,0.022 -53.078,-30.672 z"
   id="path69"
   inkscape:connector-curvature="0"
   style="fill:#040506;stroke:#000000;stroke-width:0.60511321;stroke-miterlimit:10" />
		<path
   stroke-miterlimit="10"
   d="m 80.308,141.495 0,0 c 0.004,11.168 2.994,21.639 8.214,30.661 l 53.063,-30.637 -61.277,-0.024 z"
   id="path71"
   inkscape:connector-curvature="0"
   style="fill:#ffffff;stroke:#000000;stroke-width:0.60511321;stroke-miterlimit:10" />
		<path
   stroke-miterlimit="10"
   d="m 88.528,172.15 0,0 c 5.585,9.674 13.408,17.25 22.435,22.455 l 30.621,-53.086 -53.056,30.631 z"
   id="path73"
   inkscape:connector-curvature="0"
   style="fill:#040506;stroke:#000000;stroke-width:0.60511321;stroke-miterlimit:10" />
		<path
   stroke-miterlimit="10"
   d="m 110.928,194.744 0,0 c 9.671,5.588 20.229,8.236 30.641,8.232 l -0.021,-61.312 -30.62,53.08 z"
   id="path75"
   inkscape:connector-curvature="0"
   style="fill:#ffffff;stroke:#000000;stroke-width:0.60511321;stroke-miterlimit:10" />
		<path
   stroke-miterlimit="10"
   d="m 141.608,203.111 0,0 c 11.164,0.006 21.627,-2.979 30.64,-8.193 l -30.664,-53.109 0.024,61.302 z"
   id="path77"
   inkscape:connector-curvature="0"
   style="fill:#040506;stroke:#000000;stroke-width:0.60511321;stroke-miterlimit:10" />
		<path
   stroke-miterlimit="10"
   d="m 172.387,194.873 0,0 c 9.668,-5.582 17.233,-13.402 22.43,-22.426 l -53.088,-30.679 30.658,53.105 z"
   id="path79"
   inkscape:connector-curvature="0"
   style="fill:#ffffff;stroke:#000000;stroke-width:0.60511321;stroke-miterlimit:10" />
		<path
   stroke-miterlimit="10"
   d="m 194.876,172.478 0,0 c 5.578,-9.67 8.22,-20.229 8.207,-30.648 l -61.289,-0.023 53.082,30.671 z"
   id="path81"
   inkscape:connector-curvature="0"
   style="fill:#040506;stroke:#000000;stroke-width:0.60511321;stroke-miterlimit:10" />
		<path
   stroke-miterlimit="10"
   d="m 203.153,141.831 0,0 c -0.004,-11.167 -2.996,-21.64 -8.215,-30.66 l -53.064,30.636 61.279,0.024 z"
   id="path83"
   inkscape:connector-curvature="0"
   style="fill:#ffffff;stroke:#000000;stroke-width:0.60511321;stroke-miterlimit:10" />
		<path
   stroke-miterlimit="10"
   d="m 141.834,141.663 -30.663,-53.11 c -9.022,5.198 -16.839,12.768 -22.416,22.438 l 53.079,30.672 0,0 z"
   id="path85"
   inkscape:connector-curvature="0"
   style="fill:#ffffff;stroke:#000000;stroke-width:0.60511321;stroke-miterlimit:10" />
		<path
   stroke-miterlimit="10"
   d="m 172.456,88.583 -30.619,53.08 53.064,-30.637 C 189.7,101.997 182.125,94.171 172.456,88.583 l 0,0 z"
   id="path87"
   inkscape:connector-curvature="0"
   style="fill:#040506;stroke:#000000;stroke-width:0.60511321;stroke-miterlimit:10" />
		<path
   stroke-miterlimit="10"
   d="m 141.836,141.663 0,0 0,0 z"
   id="path89"
   inkscape:connector-curvature="0"
   style="fill:#ffffff;stroke:#000000;stroke-width:0.60511321;stroke-miterlimit:10" />
		<path
   stroke-miterlimit="10"
   d="m 141.836,141.663 0,0 0,0 z"
   id="path91"
   inkscape:connector-curvature="0"
   style="fill:#ffffff;stroke:#000000;stroke-width:0.60511321;stroke-miterlimit:10" />
		<path
   stroke-miterlimit="10"
   d="m 141.836,141.663 0,0 30.619,-53.08 c -9.67,-5.587 -20.227,-8.239 -30.643,-8.234 l 0.024,61.314 0,0 z"
   id="path93"
   inkscape:connector-curvature="0"
   style="fill:#ffffff;stroke:#000000;stroke-width:0.60511321;stroke-miterlimit:10" />
		<path
   stroke-miterlimit="10"
   d="M 141.836,141.663 141.813,80.35 c -10.744,0.007 -21.333,2.842 -30.641,8.203 l 30.664,53.11 0,0 z"
   id="path95"
   inkscape:connector-curvature="0"
   style="fill:#040506;stroke:#000000;stroke-width:0.60511321;stroke-miterlimit:10" />
	</g>
	<g
   id="g97">
		<path
   stroke-miterlimit="10"
   d="m 141.794,141.718 0,0 0,0 z"
   id="path99"
   inkscape:connector-curvature="0"
   style="fill:#ffffff;stroke:#040506;stroke-width:0.60511321;stroke-miterlimit:10" />
		<path
   stroke-miterlimit="10"
   d="m 141.794,141.718 0,0 0,0 z"
   id="path101"
   inkscape:connector-curvature="0"
   style="fill:#ffffff;stroke:#040506;stroke-width:0.60511321;stroke-miterlimit:10" />
		<path
   stroke-miterlimit="10"
   d="m 141.794,141.718 0,0 0,0 z"
   id="path103"
   inkscape:connector-curvature="0"
   style="fill:#ffffff;stroke:#040506;stroke-width:0.60511321;stroke-miterlimit:10" />
		<polygon
   stroke-miterlimit="10"
   points="141.794,141.718 141.794,141.718 141.794,141.718 "
   id="polygon105"
   style="fill:#ffffff;stroke:#040506;stroke-width:0.60511321;stroke-miterlimit:10" />
		<path
   stroke-miterlimit="10"
   d="m 141.794,141.718 0,0 0,0 z"
   id="path107"
   inkscape:connector-curvature="0"
   style="fill:#ffffff;stroke:#040506;stroke-width:0.60511321;stroke-miterlimit:10" />
		<path
   stroke-miterlimit="10"
   d="m 141.794,141.718 0,0 0,0 z"
   id="path109"
   inkscape:connector-curvature="0"
   style="fill:#ffffff;stroke:#040506;stroke-width:0.60511321;stroke-miterlimit:10" />
		<polygon
   stroke-miterlimit="10"
   points="141.794,141.718 141.794,141.718 141.794,141.718 "
   id="polygon111"
   style="fill:#ffffff;stroke:#040506;stroke-width:0.60511321;stroke-miterlimit:10" />
		<path
   stroke-miterlimit="10"
   d="m 141.794,141.718 0,0 0,0 z"
   id="path113"
   inkscape:connector-curvature="0"
   style="fill:#ffffff;stroke:#040506;stroke-width:0.60511321;stroke-miterlimit:10" />
		<path
   stroke-miterlimit="10"
   d="m 195.962,141.845 h -54.204 l -0.059,-0.034 -0.034,-0.06 v 54.242 c 9.875,0 19.13,-2.645 27.103,-7.26 l 0.029,0.053 c 8.551,-4.94 15.246,-11.86 19.844,-19.85 l 0.053,0.029 c 4.936,-8.556 7.276,-17.902 7.268,-27.12 z"
   id="path115"
   inkscape:connector-curvature="0"
   style="fill:#ffffff;stroke:#040506;stroke-width:0.60511321;stroke-miterlimit:10" />
		<path
   stroke-miterlimit="10"
   d="m 141.188,195.931 0.479,-54.248 0.034,-0.059 0.062,-0.034 -54.194,-0.479 c -0.087,9.882 2.473,19.169 7.016,27.188 l -0.054,0.029 c 4.862,8.6 11.717,15.362 19.657,20.034 l -0.03,0.052 c 8.504,5.019 17.821,7.444 27.03,7.517 z"
   id="path117"
   inkscape:connector-curvature="0"
   style="fill:#ffffff;stroke:#040506;stroke-width:0.60511321;stroke-miterlimit:10" />
		<path
   stroke-miterlimit="10"
   d="m 141.794,87.468 c -9.212,-0.009 -18.548,2.333 -27.099,7.275 l 0,0 c -8.511,4.918 -15.183,11.799 -19.778,19.741 l -0.186,-0.108 0,0 c -4.937,8.558 -7.277,17.903 -7.268,27.122 h 53.947 l 0.384,0.22 0,0 v -54.25 l 0,0 z"
   id="path119"
   inkscape:connector-curvature="0"
   style="fill:#ffffff;stroke:#040506;stroke-width:0.60511321;stroke-miterlimit:10" />
		<path
   stroke-miterlimit="10"
   d="m 141.794,141.718 0,0 0,0 z"
   id="path121"
   inkscape:connector-curvature="0"
   style="fill:#ffffff;stroke:#040506;stroke-width:0.60511321;stroke-miterlimit:10" />
		<path
   stroke-miterlimit="10"
   d="m 141.794,141.718 0,0 0,0 z"
   id="path123"
   inkscape:connector-curvature="0"
   style="fill:#ffffff;stroke:#040506;stroke-width:0.60511321;stroke-miterlimit:10" />
		<path
   stroke-miterlimit="10"
   d="m 188.73,114.597 c -4.939,-8.558 -11.854,-15.259 -19.834,-19.861 -8.232,-4.747 -17.6,-7.259 -27.102,-7.268 v 54.25 l 0,0 h 54.204 c 0.009,-9.218 -2.332,-18.563 -7.268,-27.121 z"
   id="path125"
   inkscape:connector-curvature="0"
   style="fill:#ffffff;stroke:#040506;stroke-width:0.60511321;stroke-miterlimit:10" />
	</g>
	<g
   id="g127">
		<path
   stroke-miterlimit="10"
   d="m 141.75,141.719 0,0 0,0 z"
   id="path129"
   inkscape:connector-curvature="0"
   style="fill:#ffffff;stroke:#040506;stroke-width:0.60511321;stroke-miterlimit:10" />
		<path
   stroke-miterlimit="10"
   d="m 141.75,141.719 0,0 0,0 z"
   id="path131"
   inkscape:connector-curvature="0"
   style="fill:#ffffff;stroke:#040506;stroke-width:0.60511321;stroke-miterlimit:10" />
		<path
   stroke-miterlimit="10"
   d="m 141.75,141.719 0,0 0,0 z"
   id="path133"
   inkscape:connector-curvature="0"
   style="fill:#ffffff;stroke:#040506;stroke-width:0.60511321;stroke-miterlimit:10" />
		<path
   stroke-miterlimit="10"
   d="m 141.75,141.719 0,0 0,0 z"
   id="path135"
   inkscape:connector-curvature="0"
   style="fill:#ffffff;stroke:#040506;stroke-width:0.60511321;stroke-miterlimit:10" />
		<path
   stroke-miterlimit="10"
   d="m 141.75,141.719 0,0 0,0 z"
   id="path137"
   inkscape:connector-curvature="0"
   style="fill:#ffffff;stroke:#040506;stroke-width:0.60511321;stroke-miterlimit:10" />
		<path
   stroke-miterlimit="10"
   d="m 141.75,141.719 0,0 0,0 z"
   id="path139"
   inkscape:connector-curvature="0"
   style="fill:#ffffff;stroke:#040506;stroke-width:0.60511321;stroke-miterlimit:10" />
		<polygon
   stroke-miterlimit="10"
   points="141.75,141.719 141.75,141.719 141.75,141.719 "
   id="polygon141"
   style="fill:#ffffff;stroke:#040506;stroke-width:0.60511321;stroke-miterlimit:10" />
		<path
   stroke-miterlimit="10"
   d="m 141.75,141.719 0,0 0,0 z"
   id="path143"
   inkscape:connector-curvature="0"
   style="fill:#ffffff;stroke:#040506;stroke-width:0.60511321;stroke-miterlimit:10" />
		<path
   stroke-miterlimit="10"
   d="m 131.955,136.056 0,0 c -1.031,1.787 -1.52,3.737 -1.518,5.663 h 11.314 l -9.796,-5.663 z"
   id="path145"
   inkscape:connector-curvature="0"
   style="fill:#040506;stroke:#040506;stroke-width:0.60511321;stroke-miterlimit:10" />
		<path
   stroke-miterlimit="10"
   d="m 130.392,141.691 0,0 c 0,2.063 0.551,3.998 1.514,5.663 l 9.798,-5.663 h -11.312 z"
   id="path147"
   inkscape:connector-curvature="0"
   style="fill:#ffffff;stroke:#040506;stroke-width:0.60511321;stroke-miterlimit:10" />
		<path
   stroke-miterlimit="10"
   d="m 131.908,147.354 0,0 c 1.029,1.787 2.473,3.187 4.139,4.146 l 5.657,-9.809 -9.796,5.663 z"
   id="path149"
   inkscape:connector-curvature="0"
   style="fill:#040506;stroke:#040506;stroke-width:0.60511321;stroke-miterlimit:10" />
		<path
   stroke-miterlimit="10"
   d="m 136.041,151.526 0,0 c 1.785,1.03 3.734,1.52 5.656,1.519 V 141.72 l -5.656,9.806 z"
   id="path151"
   inkscape:connector-curvature="0"
   style="fill:#ffffff;stroke:#040506;stroke-width:0.60511321;stroke-miterlimit:10" />
		<path
   stroke-miterlimit="10"
   d="m 141.704,153.069 0,0 c 2.061,0 3.993,-0.552 5.657,-1.516 l -5.657,-9.808 v 11.324 z"
   id="path153"
   inkscape:connector-curvature="0"
   style="fill:#040506;stroke:#040506;stroke-width:0.60511321;stroke-miterlimit:10" />
		<path
   stroke-miterlimit="10"
   d="m 147.387,151.545 0,0 c 1.785,-1.031 3.182,-2.478 4.143,-4.145 l -9.799,-5.663 5.656,9.808 z"
   id="path155"
   inkscape:connector-curvature="0"
   style="fill:#ffffff;stroke:#040506;stroke-width:0.60511321;stroke-miterlimit:10" />
		<path
   stroke-miterlimit="10"
   d="m 151.541,147.407 0,0 c 1.028,-1.787 1.519,-3.737 1.519,-5.661 h -11.315 l 9.796,5.661 z"
   id="path157"
   inkscape:connector-curvature="0"
   style="fill:#040506;stroke:#040506;stroke-width:0.60511321;stroke-miterlimit:10" />
		<path
   stroke-miterlimit="10"
   d="m 153.069,141.746 0,0 c 0,-2.063 -0.552,-3.998 -1.513,-5.665 l -9.799,5.665 h 11.312 z"
   id="path159"
   inkscape:connector-curvature="0"
   style="fill:#ffffff;stroke:#040506;stroke-width:0.60511321;stroke-miterlimit:10" />
		<path
   stroke-miterlimit="10"
   d="m 141.75,141.719 -5.658,-9.81 c -1.666,0.961 -3.109,2.36 -4.139,4.147 l 9.797,5.663 0,0 z"
   id="path161"
   inkscape:connector-curvature="0"
   style="fill:#ffffff;stroke:#040506;stroke-width:0.60511321;stroke-miterlimit:10" />
		<path
   stroke-miterlimit="10"
   d="m 147.405,131.911 -5.654,9.809 9.798,-5.664 c -0.959,-1.669 -2.357,-3.114 -4.144,-4.145 l 0,0 z"
   id="path163"
   inkscape:connector-curvature="0"
   style="fill:#040506;stroke:#040506;stroke-width:0.60511321;stroke-miterlimit:10" />
		<path
   stroke-miterlimit="10"
   d="m 141.75,141.719 0,0 0,0 z"
   id="path165"
   inkscape:connector-curvature="0"
   style="fill:#ffffff;stroke:#040506;stroke-width:0.60511321;stroke-miterlimit:10" />
		<path
   stroke-miterlimit="10"
   d="m 141.75,141.719 0,0 0,0 z"
   id="path167"
   inkscape:connector-curvature="0"
   style="fill:#ffffff;stroke:#040506;stroke-width:0.60511321;stroke-miterlimit:10" />
		<path
   stroke-miterlimit="10"
   d="m 141.75,141.719 0,0 5.654,-9.809 c -1.783,-1.03 -3.732,-1.521 -5.654,-1.518 v 11.327 l 0,0 z"
   id="path169"
   inkscape:connector-curvature="0"
   style="fill:#ffffff;stroke:#040506;stroke-width:0.60511321;stroke-miterlimit:10" />
		<path
   stroke-miterlimit="10"
   d="m 141.75,141.719 v -11.327 c -1.983,0.001 -3.938,0.525 -5.657,1.518 l 5.657,9.809 0,0 z"
   id="path171"
   inkscape:connector-curvature="0"
   style="fill:#040506;stroke:#040506;stroke-width:0.60511321;stroke-miterlimit:10" />
	</g>
	<ellipse
   stroke-miterlimit="10"
   cx="141.731"
   cy="141.73"
   rx="8.493"
   ry="8.5010004"
   id="ellipse173"
   d="m 150.224,141.73 c 0,4.69497 -3.80244,8.501 -8.493,8.501 -4.69055,0 -8.493,-3.80603 -8.493,-8.501 0,-4.69498 3.80245,-8.501 8.493,-8.501 4.69056,0 8.493,3.80602 8.493,8.501 z"
   sodipodi:cx="141.731"
   sodipodi:cy="141.73"
   sodipodi:rx="8.493"
   sodipodi:ry="8.5010004"
   style="fill:#ffffff;stroke:#040506;stroke-width:0.60511321;stroke-miterlimit:10" />
	<circle
   stroke-miterlimit="10"
   cx="141.73"
   cy="141.73"
   r="4.723"
   id="circle175"
   d="m 146.453,141.73 c 0,2.60844 -2.11456,4.723 -4.723,4.723 -2.60845,0 -4.723,-2.11456 -4.723,-4.723 0,-2.60845 2.11455,-4.723 4.723,-4.723 2.60844,0 4.723,2.11455 4.723,4.723 z"
   sodipodi:cx="141.73"
   sodipodi:cy="141.73"
   sodipodi:rx="4.723"
   sodipodi:ry="4.723"
   style="stroke:#040506;stroke-width:0.60511321;stroke-miterlimit:10" />
</g>
</svg>
