<?xml version="1.0" encoding="utf-8"?>
<!DOCTYPE svg PUBLIC "-//W3C//DTD SVG 1.1//EN" "http://www.w3.org/Graphics/SVG/1.1/DTD/svg11.dtd">
<svg version="1.1" id="Layer_1" xmlns="http://www.w3.org/2000/svg" xmlns:xlink="http://www.w3.org/1999/xlink" x="0px" y="0px"
	 width="113.39px" height="113.39px" viewBox="0 0 113.39 113.39" enable-background="new 0 0 113.39 113.39" xml:space="preserve">
<g>
	<g>
		<path fill="none" stroke="#000000" stroke-width="2" stroke-miterlimit="10" d="M33.265,47.34c0,26.92,45.157,26.92,45.157,0"/>
		<path fill="none" stroke="#000000" stroke-width="2" stroke-miterlimit="10" d="M47.059,53.772c0,6.083,18.407,6.083,18.407,0"/>
		<ellipse cx="64.985" cy="44.539" rx="2.53" ry="2.196"/>
		<ellipse cx="47.924" cy="44.539" rx="2.53" ry="2.196"/>
		<path stroke="#000000" stroke-miterlimit="10" d="M73.032,71.846c0,0-3.296,11.049-16.771,11.049
			c-13.474,0-16.877-11.049-16.877-11.049c-7.058,0.832-11.763,15-11.763,15v11.166h28.004h1.009h28.268V86.846
			C84.902,86.846,80.154,72.678,73.032,71.846z"/>
	</g>
	<path stroke="#000000" stroke-miterlimit="10" d="M32.248,53.772"/>
</g>
<path stroke="#000000" stroke-miterlimit="10" d="M80.494,43.126c0,0-6.981-4.126-23.943-4.292c-14.967,0-21.181,4.202-23.942,4.26
	C32.296,12.869,80.181,12.901,80.494,43.126"/>
<path stroke="#000000" stroke-width="0.75" stroke-miterlimit="10" d="M32.731,48.347l-2.564,16.32c0,0,10.5,3.401,17.757,1.863
	C42.757,64.197,37.5,60,37.5,60L32.731,48.347z"/>
<path stroke="#000000" stroke-width="0.75" stroke-miterlimit="10" d="M79.621,48.347l2.564,16.32c0,0-10.5,3.401-17.757,1.863
	C69.596,64.197,74.853,60,74.853,60L79.621,48.347z"/>
</svg>
