<?xml version="1.0" encoding="utf-8"?>
<!DOCTYPE svg PUBLIC "-//W3C//DTD SVG 1.1//EN" "http://www.w3.org/Graphics/SVG/1.1/DTD/svg11.dtd">
<svg version="1.1" id="Layer_1" xmlns="http://www.w3.org/2000/svg" xmlns:xlink="http://www.w3.org/1999/xlink" x="0px" y="0px"
	 width="113.39px" height="113.39px" viewBox="0 0 113.39 113.39" enable-background="new 0 0 113.39 113.39" xml:space="preserve">
<g>
	<g>
		<path fill="none" stroke="#000000" stroke-width="2" stroke-miterlimit="10" d="M35.126,45.718c0,26.92,45.157,26.92,45.157,0"/>
		<path stroke="#000000" stroke-miterlimit="10" d="M81.854,39.69c0,0-17.696-0.421-38.689-0.178
			c-0.609,0.008-1.22,0.015-1.834,0.022c-2.376,0.032-4.79,0.073-7.22,0.124C33.799,10.185,81.541,10.216,81.854,39.69"/>
		<path fill="none" stroke="#000000" stroke-width="2" stroke-miterlimit="10" d="M48.92,52.149c0,6.084,18.407,6.084,18.407,0"/>
		<ellipse cx="66.846" cy="42.917" rx="2.53" ry="2.195"/>
		<ellipse cx="49.785" cy="42.917" rx="2.53" ry="2.195"/>
		<path stroke="#000000" stroke-miterlimit="10" d="M74.894,70.223l-5.518-0.55c0,0-5.065,9.166-11.253,9.166
			c-6.723,0-10.868-8.812-10.868-8.812l-6.009,0.195c-7.058,0.833-11.763,15-11.763,15V96.39h28.004h1.01h28.268V85.223
			C86.764,85.223,82.016,71.056,74.894,70.223z"/>
	</g>
	<path stroke="#000000" stroke-miterlimit="10" d="M34.109,52.149"/>
	<path stroke="#000000" stroke-miterlimit="10" d="M46,38.007c0,0-0.996,13.12-12.539,13.201
		c-11.544,0.08,0.995-11.138,0.995-11.138"/>
</g>
<path d="M65.078,65.907l-7.16,0.766l-6.75-0.766c0,0,3.418,2.934,2.084,5.1s2.5,0,2.5,0s1.005,1.466,1.871,2.916
	c0.052,0.088,0.099,0.141,0.142,0.178c0.085,0.316,0.217,0.379,0.414,0.049c0.866-1.451,2.315-3.143,2.315-3.143s3.834,2.166,2.5,0
	S65.078,65.907,65.078,65.907z"/>
</svg>
