<?xml version="1.0" encoding="utf-8"?>
<!DOCTYPE svg PUBLIC "-//W3C//DTD SVG 1.1//EN" "http://www.w3.org/Graphics/SVG/1.1/DTD/svg11.dtd">
<svg version="1.1" id="Layer_1" xmlns="http://www.w3.org/2000/svg" xmlns:xlink="http://www.w3.org/1999/xlink" x="0px" y="0px"
	 width="113.39px" height="113.39px" viewBox="0 0 113.39 113.39" enable-background="new 0 0 113.39 113.39" xml:space="preserve">
<g>
	<path fill="none" stroke="#000000" stroke-width="2" stroke-miterlimit="10" d="M33.626,46.312c0,26.92,45.157,26.92,45.157,0"/>
	<path stroke="#000000" stroke-miterlimit="10" d="M80.354,40.284L67.729,27.633c-5.229,4.916-10.424,12.104-35.118,12.62
		C32.299,10.779,80.041,10.811,80.354,40.284"/>
	<path fill="none" stroke="#000000" stroke-width="2" stroke-miterlimit="10" d="M47.42,52.744c0,6.084,18.407,6.084,18.407,0"/>
	<ellipse cx="65.346" cy="43.511" rx="2.53" ry="2.196"/>
	<ellipse cx="48.285" cy="43.511" rx="2.53" ry="2.196"/>
	<path stroke="#000000" stroke-miterlimit="10" d="M73.078,70.5l-16.9,17.639L39.43,70.5c-7.058,0.833-11.763,15-11.763,15v11.167
		h28.004h1.009h28.269V85.5C84.948,85.5,80.199,71.333,73.078,70.5z"/>
</g>
</svg>
