<?xml version="1.0" encoding="UTF-8" standalone="no"?>
<!-- Created with Inkscape (http://www.inkscape.org/) -->

<svg
   xmlns:dc="http://purl.org/dc/elements/1.1/"
   xmlns:cc="http://creativecommons.org/ns#"
   xmlns:rdf="http://www.w3.org/1999/02/22-rdf-syntax-ns#"
   xmlns:svg="http://www.w3.org/2000/svg"
   xmlns="http://www.w3.org/2000/svg"
   xmlns:sodipodi="http://sodipodi.sourceforge.net/DTD/sodipodi-0.dtd"
   xmlns:inkscape="http://www.inkscape.org/namespaces/inkscape"
   height="60"
   id="svg1"
   inkscape:version="0.47 r22583"
   sodipodi:docname="password.svg"
   sodipodi:version="0.32"
   width="120"
   version="1.1">
  <metadata
     id="metadata3">
    <rdf:RDF>
      <cc:Work
         rdf:about="">
        <dc:title>Part of the Flat Icon Collection (Wed Aug 25 23:23:49 2004)</dc:title>
        <dc:description />
        <dc:subject>
          <rdf:Bag>
            <rdf:li>hash</rdf:li>
            <rdf:li />
            <rdf:li>application</rdf:li>
            <rdf:li>computer</rdf:li>
            <rdf:li>icons</rdf:li>
            <rdf:li>theme</rdf:li>
          </rdf:Bag>
        </dc:subject>
        <dc:publisher>
          <cc:Agent
             rdf:about="http://www.openclipart.org">
            <dc:title>Danny Allen</dc:title>
          </cc:Agent>
        </dc:publisher>
        <dc:creator>
          <cc:Agent>
            <dc:title>Danny Allen</dc:title>
          </cc:Agent>
        </dc:creator>
        <dc:rights>
          <cc:Agent>
            <dc:title>Danny Allen</dc:title>
          </cc:Agent>
        </dc:rights>
        <dc:date />
        <dc:format>image/svg+xml</dc:format>
        <dc:type
           rdf:resource="http://purl.org/dc/dcmitype/StillImage" />
        <cc:license
           rdf:resource="http://web.resource.org/cc/PublicDomain" />
        <dc:language>en</dc:language>
      </cc:Work>
      <cc:License
         rdf:about="http://web.resource.org/cc/PublicDomain">
        <cc:permits
           rdf:resource="http://web.resource.org/cc/Reproduction" />
        <cc:permits
           rdf:resource="http://web.resource.org/cc/Distribution" />
        <cc:permits
           rdf:resource="http://web.resource.org/cc/DerivativeWorks" />
      </cc:License>
    </rdf:RDF>
  </metadata>
  <defs
     id="defs3">
    <inkscape:perspective
       sodipodi:type="inkscape:persp3d"
       inkscape:vp_x="0 : 30 : 1"
       inkscape:vp_y="0 : 1000 : 0"
       inkscape:vp_z="60 : 30 : 1"
       inkscape:persp3d-origin="30 : 20 : 1"
       id="perspective10" />
    <inkscape:perspective
       id="perspective2824"
       inkscape:persp3d-origin="0.5 : 0.33333333 : 1"
       inkscape:vp_z="1 : 0.5 : 1"
       inkscape:vp_y="0 : 1000 : 0"
       inkscape:vp_x="0 : 0.5 : 1"
       sodipodi:type="inkscape:persp3d" />
  </defs>
  <sodipodi:namedview
     bordercolor="#666666"
     borderopacity="1.0"
     id="base"
     inkscape:cx="33.733651"
     inkscape:cy="30.405536"
     inkscape:pageopacity="0.0"
     inkscape:pageshadow="2"
     inkscape:window-height="694"
     inkscape:window-width="1152"
     inkscape:window-x="0"
     inkscape:window-y="52"
     inkscape:zoom="8"
     pagecolor="#ffffff"
     showgrid="false"
     inkscape:window-maximized="1"
     inkscape:current-layer="svg1"
     inkscape:snap-midpoints="false"
     inkscape:snap-smooth-nodes="true"
     inkscape:object-paths="true"
     inkscape:snap-bbox="true" />
  <path
     d="m 56.84375,9.5625 -46.8125,0 c -2.16243,0 -3.875,1.74382 -3.875,3.90625 l 0,31.53125 c 0,2.162431 1.71257,3.875 3.875,3.875 l 46.8125,0"
     id="path831"
     sodipodi:nodetypes="cccccc"
     style="fill:#b3b3b3;fill-rule:evenodd;stroke:none" />
  <path
     d="m 42.854635,19.663715 c 0.521709,0 0.999945,0.08695 1.434704,0.260857 0.452151,0.173902 0.808653,0.452148 1.06951,0.834738 0.260857,0.365197 0.39128,0.834738 0.39128,1.408619 0,0.434759 -0.06956,1.026034 -0.208684,1.773821 -0.139122,0.730394 -0.234768,1.286886 -0.286941,1.669477 0.556493,-0.382591 1.052119,-0.739094 1.486881,-1.069512 0.452148,-0.347807 0.886905,-0.617359 1.304275,-0.808649 0.417369,-0.208685 0.826043,-0.31303 1.226023,-0.31303 0.817348,0 1.504269,0.31303 2.060761,0.939083 0.556492,0.626054 0.834738,1.356447 0.834738,2.191185 0,0.591275 -0.226078,1.0869 -0.678226,1.486879 -0.452151,0.399976 -1.182545,0.808651 -2.191189,1.22602 -1.00864,0.399979 -1.547743,0.617359 -1.617304,0.652138 0.06956,0.03478 0.608664,0.260856 1.617304,0.678224 1.026032,0.41737 1.756432,0.817349 2.191189,1.19994 0.452148,0.365197 0.678226,0.843432 0.678226,1.434704 0,0.852127 -0.278246,1.599914 -0.834738,2.243357 -0.556492,0.643447 -1.243413,0.965166 -2.060761,0.965166 -0.556492,0 -1.19124,-0.243463 -1.904244,-0.730394 -0.713009,-0.48693 -1.417319,-0.97386 -2.112935,-1.46079 0.08696,0.556491 0.191296,1.147762 0.31303,1.773815 0.12173,0.626054 0.182595,1.156462 0.182595,1.591219 0,0.869522 -0.278245,1.52166 -0.834737,1.956417 -0.539098,0.41737 -1.226019,0.626054 -2.060757,0.626054 -0.817349,0 -1.504269,-0.208684 -2.060761,-0.626054 -0.539103,-0.434757 -0.808655,-1.086895 -0.808655,-1.956417 0,-0.278245 0.06957,-0.799954 0.20869,-1.565131 0.139122,-0.765175 0.226073,-1.365146 0.260852,-1.799903 -0.921689,0.643442 -1.530352,1.078199 -1.825988,1.304278 -0.295635,0.208681 -0.652138,0.408671 -1.069507,0.599966 -0.399979,0.191295 -0.78257,0.28694 -1.147767,0.28694 -0.834737,0 -1.512964,-0.313025 -2.034673,-0.939078 -0.504319,-0.626053 -0.756481,-1.382535 -0.756481,-2.269445 0,-0.626054 0.217379,-1.12168 0.652137,-1.486876 0.434763,-0.365197 1.139073,-0.739093 2.112933,-1.121679 0.973861,-0.399979 1.530353,-0.634748 1.669476,-0.704313 -0.139123,-0.06956 -0.695615,-0.295636 -1.669476,-0.678222 -0.956472,-0.39998 -1.660781,-0.791265 -2.112933,-1.173851 -0.434758,-0.39998 -0.652137,-0.9043 -0.652137,-1.512964 0,-0.852127 0.252162,-1.582525 0.756481,-2.191185 0.521709,-0.626053 1.199936,-0.939083 2.034673,-0.939083 0.521714,0 0.99995,0.139124 1.434708,0.417369 0.452148,0.278247 1.321668,0.869522 2.608554,1.773822 -0.03478,-0.382591 -0.12173,-0.982562 -0.260852,-1.799905 -0.139123,-0.817349 -0.20869,-1.365146 -0.20869,-1.643393 0,-0.869516 0.269552,-1.504264 0.808655,-1.904243 0.556492,-0.399981 1.243412,-0.599971 2.060761,-0.599971 z m -20.790194,0 c 0.521709,0 0.999944,0.08695 1.434707,0.260857 0.452148,0.173902 0.808649,0.452148 1.069506,0.834738 0.260857,0.365197 0.391281,0.834738 0.391281,1.408619 0,0.434759 -0.06956,1.026034 -0.20868,1.773821 -0.139123,0.730394 -0.234773,1.286886 -0.286945,1.669477 0.556492,-0.382591 1.052117,-0.739094 1.48688,-1.069512 0.452147,-0.347807 0.88691,-0.617359 1.30428,-0.808649 0.417369,-0.208685 0.826038,-0.31303 1.226019,-0.31303 0.817348,0 1.504269,0.31303 2.06076,0.939083 0.556493,0.626054 0.834738,1.356447 0.834738,2.191185 0,0.591275 -0.226074,1.0869 -0.678226,1.486879 -0.452152,0.399976 -1.182545,0.808651 -2.191185,1.22602 -1.008644,0.399979 -1.547747,0.617359 -1.617309,0.652138 0.06956,0.03478 0.608665,0.260856 1.617309,0.678224 1.026029,0.41737 1.756427,0.817349 2.191185,1.19994 0.452152,0.365197 0.678226,0.843432 0.678226,1.434704 0,0.852127 -0.278245,1.599914 -0.834738,2.243357 -0.556491,0.643447 -1.243412,0.965166 -2.06076,0.965166 -0.556494,0 -1.191241,-0.243463 -1.904246,-0.730394 -0.713004,-0.48693 -1.417318,-0.97386 -2.112933,-1.46079 0.08695,0.556491 0.191295,1.147762 0.313028,1.773815 0.121734,0.626054 0.182597,1.156462 0.182597,1.591219 0,0.869522 -0.278246,1.52166 -0.834738,1.956417 -0.539098,0.41737 -1.226019,0.626054 -2.060756,0.626054 -0.817349,0 -1.504269,-0.208684 -2.060762,-0.626054 -0.539098,-0.434757 -0.80865,-1.086895 -0.80865,-1.956417 0,-0.278245 0.06956,-0.799954 0.208685,-1.565131 0.139123,-0.765175 0.226074,-1.365146 0.260853,-1.799903 -0.92169,0.643442 -1.530354,1.078199 -1.82599,1.304278 -0.295634,0.208681 -0.652137,0.408671 -1.069506,0.599966 -0.39998,0.191295 -0.782566,0.28694 -1.147766,0.28694 -0.834738,0 -1.512962,-0.313025 -2.034673,-0.939078 -0.504322,-0.626053 -0.756482,-1.382535 -0.756482,-2.269445 0,-0.626054 0.21738,-1.12168 0.652139,-1.486876 0.43476,-0.365197 1.13907,-0.739093 2.112931,-1.121679 0.973862,-0.399979 1.530354,-0.634748 1.669476,-0.704313 -0.139122,-0.06956 -0.695614,-0.295636 -1.669476,-0.678222 -0.956472,-0.39998 -1.660781,-0.791265 -2.112931,-1.173851 -0.434759,-0.39998 -0.652139,-0.9043 -0.652139,-1.512964 0,-0.852127 0.25216,-1.582525 0.756482,-2.191185 0.521711,-0.626053 1.199935,-0.939083 2.034673,-0.939083 0.521712,0 0.999948,0.139124 1.434707,0.417369 0.452147,0.278247 1.321668,0.869522 2.608555,1.773822 -0.03478,-0.382591 -0.12173,-0.982562 -0.260853,-1.799905 -0.139123,-0.817349 -0.208685,-1.365146 -0.208685,-1.643393 0,-0.869516 0.269552,-1.504264 0.80865,-1.904243 0.556493,-0.399981 1.243413,-0.599971 2.060762,-0.599971 z"
     id="path829"
     sodipodi:nodetypes="cccccccccccccccccccccccccccccccccccccccccccccccccccccccccccccccccccccccccccccccccccccccccccccccc"
     style="font-size:12px;font-weight:900;fill:#333333;stroke-width:1pt;font-family:VAG Rounded Black SSi" />
  <path
     d="m 56.6875,49.125 -50.3125,0 0,-38.90625 50.3125,0"
     id="path832"
     sodipodi:nodetypes="cccc"
     sodipodi:stroke-cmyk="(0.0000000 0.0000000 0.0000000 0.80000001)"
     style="fill:none;stroke:#333333;stroke-width:3.125;stroke-linecap:round;stroke-linejoin:round;stroke-opacity:1;stroke-dasharray:none" />
  <path
     d="m 114.8125,8.390625 -45.88895,0 c -2.119768,0 -3.79855,1.832536 -3.79855,4.104978 l 0,33.135384 c 0,2.272443 1.678782,4.072138 3.79855,4.072138 l 45.88895,0"
     id="path831-4"
     sodipodi:nodetypes="cccccc"
     style="fill:#b3b3b3;fill-rule:evenodd;stroke:none" />
  <path
     d="m 101.57338,19.74184 c 0.52171,0 0.99995,0.08695 1.43471,0.260857 0.45215,0.173902 0.80865,0.452148 1.06951,0.834738 0.26086,0.365197 0.39128,0.834738 0.39128,1.408619 0,0.434759 -0.0696,1.026034 -0.20869,1.773821 -0.13912,0.730394 -0.23476,1.286886 -0.28694,1.669477 0.5565,-0.382591 1.05212,-0.739094 1.48688,-1.069512 0.45215,-0.347807 0.88691,-0.617359 1.30428,-0.808649 0.41737,-0.208685 0.82604,-0.31303 1.22602,-0.31303 0.81735,0 1.50427,0.31303 2.06076,0.939083 0.5565,0.626054 0.83474,1.356447 0.83474,2.191185 0,0.591275 -0.22608,1.0869 -0.67822,1.486879 -0.45216,0.399976 -1.18255,0.808651 -2.19119,1.22602 -1.00864,0.399979 -1.54775,0.617359 -1.61731,0.652138 0.0696,0.03478 0.60867,0.260856 1.61731,0.678224 1.02603,0.41737 1.75643,0.817349 2.19119,1.19994 0.45214,0.365197 0.67822,0.843432 0.67822,1.434704 0,0.852127 -0.27824,1.599914 -0.83474,2.243357 -0.55649,0.643447 -1.24341,0.965166 -2.06076,0.965166 -0.55649,0 -1.19124,-0.243463 -1.90424,-0.730394 -0.71301,-0.48693 -1.41732,-0.97386 -2.11294,-1.46079 0.087,0.556491 0.1913,1.147762 0.31303,1.773815 0.12173,0.626054 0.1826,1.156462 0.1826,1.591219 0,0.869522 -0.27825,1.52166 -0.83474,1.956417 -0.5391,0.41737 -1.22602,0.626054 -2.06076,0.626054 -0.81734,0 -1.50426,-0.208684 -2.06076,-0.626054 -0.5391,-0.434757 -0.80865,-1.086895 -0.80865,-1.956417 0,-0.278245 0.0696,-0.799954 0.20869,-1.565131 0.13912,-0.765175 0.22607,-1.365146 0.26085,-1.799903 -0.92169,0.643442 -1.53035,1.078199 -1.82599,1.304278 -0.29563,0.208681 -0.65214,0.408671 -1.0695,0.599966 -0.39998,0.191295 -0.78257,0.28694 -1.147771,0.28694 -0.834737,0 -1.512964,-0.313025 -2.034673,-0.939078 -0.504319,-0.626053 -0.756481,-1.382535 -0.756481,-2.269445 0,-0.626054 0.217379,-1.12168 0.652137,-1.486876 0.434763,-0.365197 1.139073,-0.739093 2.112933,-1.121679 0.973865,-0.399979 1.530355,-0.634748 1.669475,-0.704313 -0.13912,-0.06956 -0.69561,-0.295636 -1.669475,-0.678222 -0.956472,-0.39998 -1.660781,-0.791265 -2.112933,-1.173851 -0.434758,-0.39998 -0.652137,-0.9043 -0.652137,-1.512964 0,-0.852127 0.252162,-1.582525 0.756481,-2.191185 0.521709,-0.626053 1.199936,-0.939083 2.034673,-0.939083 0.521711,0 0.999951,0.139124 1.434711,0.417369 0.45214,0.278247 1.32166,0.869522 2.60855,1.773822 -0.0348,-0.382591 -0.12173,-0.982562 -0.26085,-1.799905 -0.13912,-0.817349 -0.20869,-1.365146 -0.20869,-1.643393 0,-0.869516 0.26955,-1.504264 0.80865,-1.904243 0.5565,-0.399981 1.24342,-0.599971 2.06076,-0.599971 z m -20.790189,0 c 0.521709,0 0.999944,0.08695 1.434707,0.260857 0.452148,0.173902 0.808649,0.452148 1.069506,0.834738 0.260857,0.365197 0.391281,0.834738 0.391281,1.408619 0,0.434759 -0.06956,1.026034 -0.20868,1.773821 -0.139123,0.730394 -0.234773,1.286886 -0.286945,1.669477 0.556492,-0.382591 1.052117,-0.739094 1.48688,-1.069512 0.452147,-0.347807 0.88691,-0.617359 1.30428,-0.808649 0.417369,-0.208685 0.826038,-0.31303 1.226019,-0.31303 0.817348,0 1.504269,0.31303 2.06076,0.939083 0.556493,0.626054 0.834738,1.356447 0.834738,2.191185 0,0.591275 -0.226074,1.0869 -0.678226,1.486879 -0.452152,0.399976 -1.182545,0.808651 -2.191185,1.22602 -1.008644,0.399979 -1.547747,0.617359 -1.617309,0.652138 0.06956,0.03478 0.608665,0.260856 1.617309,0.678224 1.026029,0.41737 1.756427,0.817349 2.191185,1.19994 0.452152,0.365197 0.678226,0.843432 0.678226,1.434704 0,0.852127 -0.278245,1.599914 -0.834738,2.243357 -0.556491,0.643447 -1.243412,0.965166 -2.06076,0.965166 -0.556494,0 -1.191241,-0.243463 -1.904246,-0.730394 -0.713004,-0.48693 -1.417318,-0.97386 -2.112933,-1.46079 0.08695,0.556491 0.191295,1.147762 0.313028,1.773815 0.121734,0.626054 0.182597,1.156462 0.182597,1.591219 0,0.869522 -0.278246,1.52166 -0.834738,1.956417 -0.539098,0.41737 -1.226019,0.626054 -2.060756,0.626054 -0.817349,0 -1.504269,-0.208684 -2.060762,-0.626054 -0.539098,-0.434757 -0.80865,-1.086895 -0.80865,-1.956417 0,-0.278245 0.06956,-0.799954 0.208685,-1.565131 0.139123,-0.765175 0.226074,-1.365146 0.260853,-1.799903 -0.92169,0.643442 -1.530354,1.078199 -1.82599,1.304278 -0.295634,0.208681 -0.652137,0.408671 -1.069506,0.599966 -0.39998,0.191295 -0.782566,0.28694 -1.147766,0.28694 -0.834738,0 -1.512962,-0.313025 -2.034673,-0.939078 C 71.80106,34.949726 71.5489,34.193244 71.5489,33.306334 c 0,-0.626054 0.21738,-1.12168 0.652139,-1.486876 0.43476,-0.365197 1.13907,-0.739093 2.112931,-1.121679 0.973862,-0.399979 1.530354,-0.634748 1.669476,-0.704313 -0.139122,-0.06956 -0.695614,-0.295636 -1.669476,-0.678222 -0.956472,-0.39998 -1.660781,-0.791265 -2.112931,-1.173851 -0.434759,-0.39998 -0.652139,-0.9043 -0.652139,-1.512964 0,-0.852127 0.25216,-1.582525 0.756482,-2.191185 0.521711,-0.626053 1.199935,-0.939083 2.034673,-0.939083 0.521712,0 0.999948,0.139124 1.434707,0.417369 0.452147,0.278247 1.321668,0.869522 2.608555,1.773822 -0.03478,-0.382591 -0.12173,-0.982562 -0.260853,-1.799905 -0.139123,-0.817349 -0.208685,-1.365146 -0.208685,-1.643393 0,-0.869516 0.269552,-1.504264 0.80865,-1.904243 0.556493,-0.399981 1.243413,-0.599971 2.060762,-0.599971 z"
     id="path829-6"
     sodipodi:nodetypes="cccccccccccccccccccccccccccccccccccccccccccccccccccccccccccccccccccccccccccccccccccccccccccccccc"
     style="font-size:12px;font-weight:900;fill:#333333;stroke-width:1pt;font-family:VAG Rounded Black SSi" />
  <path
     d="m 66.343752,10.296872 50.312498,0 0,38.906255 -50.312498,0"
     id="path832-7"
     sodipodi:nodetypes="cccc"
     sodipodi:stroke-cmyk="(0.0000000 0.0000000 0.0000000 0.80000001)"
     style="fill:none;stroke:#333333;stroke-width:3.125;stroke-linecap:round;stroke-linejoin:round;stroke-opacity:1;stroke-dasharray:none" />
</svg>
