<?xml version="1.0" encoding="UTF-8"?>
<!-- Generator: Adobe Illustrator 14.0.0, SVG Export Plug-In . SVG Version: 6.00 Build 43363)  -->
<!DOCTYPE svg PUBLIC "-//W3C//DTD SVG 1.1//EN" "http://www.w3.org/Graphics/SVG/1.1/DTD/svg11.dtd">
<svg version="1.1" id="Layer_1" xmlns="http://www.w3.org/2000/svg" xmlns:xlink="http://www.w3.org/1999/xlink" x="0px" y="0px" width="300px" height="300px" viewBox="0 0 300 300" enable-background="new 0 0 300 300" xml:space="preserve">
<g>
	<path d="M84.47,129.58c2.582,1.789,5.65,3.566,8.727,1.75c0.036-0.843,0.105-2.527,0.14-3.369   c11.007,2.402,22.332,2.053,33.522,1.829c5.067-0.495,10.04-1.662,15.064-2.459c6.568-1.346,13.908-2.555,18.623-7.796   c4.176-4.462,2.271-13.796-4.425-14.344c-7.42-0.158-13.677,4.566-20.261,7.331c-19.251,7.749-41.033,8.787-61.065,3.606   c-6.448-3.266-12.745-7.01-18.745-11.019c0.429-2.979,1.708-5.954,1.101-9.002C55.217,81.981,41.046,71.01,26.904,72.268   c-5.83,0.169-11.323,3.423-14.615,8.168c-2.86,5.357-2.656,12.016-0.392,17.554c4.753,10.255,15.693,17.482,27.075,17.233   c4.864,0.102,9.584-1.892,13.313-4.937c3.835,1.852,7.008,4.747,10.739,6.767C70.308,120.993,77.397,125.277,84.47,129.58z    M44.233,108.137c-9.413,3.137-20.221-1.964-25.312-10.145C16,93.72,15.507,87.848,17.954,83.255   c1.87-2.377,4.619-3.998,7.576-4.595c11.92-2.254,24.575,7.27,25.642,19.378C50.933,102.307,48.465,106.741,44.233,108.137z"/>
	<path d="M217.278,115.819c11.825,4.397,25.53,3.576,36.233,10.926c4.412,2.85,7.053,7.908,7.047,13.142   c-0.048,11.29-3.436,22.657-10.311,31.688c3.767,0.212,5.91-3.69,8.69-5.667c11.285-9.49,16.99-25.176,13.904-39.65   c-1.299-6.402-6.128-11.251-11.088-15.126c-8.774-6.195-19.168-9.641-29.645-11.611c-5.996-0.737-12.334-0.499-17.975,1.836   c-2.526,1.049-5.224,3.548-4.3,6.545C211.02,111.491,213.579,114.652,217.278,115.819z"/>
	<path d="M258.178,237.626c-9.352-4.469-18.881-10.561-23.126-20.457c-4.909-12.779-4.068-26.705-5.023-40.12   c-0.599-5.64-0.978-11.759-4.513-16.468c-4.168-6.124-15.336-6.841-18.925,0.271c-2.876,5.579-2.167,12.167-1.641,18.2   c2.598,16.971,8.179,33.479,16.365,48.567c6.018,8.933,16.594,13.158,26.668,15.64c11.378,2.553,22.755,5.123,34.135,7.682   c3.17,0.33,7.401,1.84,9.782-1.065C280.717,245.636,268.904,243.059,258.178,237.626z"/>
	<path d="M197.869,158.957c-4.168-2.54-9.429-1.803-13.824-0.289c-11.773,4.804-21.485,13.224-31.364,21.003   c-29.333,23.355-58.805,46.544-88.071,69.979c-1.911,1.415-4.009,2.544-6.128,3.613c0.46,0.369,0.921,0.742,1.383,1.119   c6.338-2.177,12.528-4.807,18.349-8.14c33.863-18.839,68.132-36.942,101.78-56.166c5.938-3.345,12.024-6.515,17.455-10.665   c3.836-3.001,6.907-8.162,5.263-13.119C201.65,163.576,200.589,160.446,197.869,158.957z"/>
	<path d="M35.406,124.313c-4.988,0-9.031,4.043-9.031,9.031c0,4.988,4.043,9.031,9.031,9.031c4.988,0,9.031-4.043,9.031-9.031   C44.437,128.356,40.394,124.313,35.406,124.313z M35.406,136.375c-1.671,0-3.031-1.36-3.031-3.031c0-1.671,1.36-3.031,3.031-3.031   c1.672,0,3.031,1.36,3.031,3.031C38.437,135.015,37.077,136.375,35.406,136.375z"/>
	<circle cx="170.449" cy="74.676" r="21.699"/>
</g>
</svg>